<svg width="135" height="66" viewBox="0 0 135 66" fill="none" xmlns="http://www.w3.org/2000/svg">
<rect x="10" y="10.0635" width="45" height="45.0004" rx="3.85786" fill="url(#paint0_linear_56_214)"/>
<path fill-rule="evenodd" clip-rule="evenodd" d="M48.0737 31.8372L51.5214 29.5605C51.882 29.3222 51.8706 28.7895 51.5003 28.5669L32.7822 17.3164C32.5962 17.2044 32.3633 17.2044 32.1772 17.3164L13.4996 28.5426C13.1196 28.7709 13.12 29.3219 13.5003 29.5498L17.3613 31.8636C17.5806 31.9953 17.859 31.9685 18.0518 31.7999C21.1231 29.1179 26.2611 26.7593 32.4799 26.7593C38.6987 26.7593 44.2653 29.114 47.3681 31.7931C47.5667 31.9642 47.8551 31.9817 48.0737 31.8372ZM43.784 32.0747V35.9082C43.784 36.3078 43.3919 36.5915 43.013 36.4635C41.4938 35.9518 37.7931 34.9285 32.4799 34.9285C30.278 34.9285 28.3541 35.1042 26.7466 35.3464C26.46 35.3894 26.2485 35.6359 26.2485 35.9253V39.1562H21.1764V32.0747C21.1764 31.8826 21.2694 31.7023 21.4283 31.5939C21.7961 31.3409 22.2011 31.0987 22.6427 30.8704C25.2517 29.5194 28.7452 28.7759 32.4799 28.7759C36.2145 28.7759 39.7087 29.5194 42.3171 30.8704C42.7586 31.0987 43.1643 31.3409 43.5321 31.5939C43.6903 31.7023 43.784 31.8826 43.784 32.0747ZM21.1764 39.1562V47.3089C21.1764 47.9315 22.0201 48.1236 22.2895 47.5623L23.4355 45.1761C23.5847 44.8666 23.9672 44.7511 24.2627 44.9267L25.3644 45.5815C25.7548 45.8137 26.2485 45.5325 26.2485 45.0788V39.1562H21.1764Z" fill="white"/>
<path d="M74.212 24.7836H77.128V42.0636H74.572V41.1036C73.604 41.9836 72.372 42.4236 70.876 42.4236C69.708 42.4236 68.672 42.1276 67.768 41.5356C66.872 40.9356 66.18 40.1196 65.692 39.0876C65.204 38.0476 64.96 36.8796 64.96 35.5836C64.96 34.2716 65.208 33.0996 65.704 32.0676C66.2 31.0276 66.904 30.2156 67.816 29.6316C68.728 29.0396 69.784 28.7436 70.984 28.7436C72.232 28.7436 73.308 29.0756 74.212 29.7396V24.7836ZM71.32 39.8316C72.432 39.8316 73.252 39.4556 73.78 38.7036C74.308 37.9436 74.572 36.9036 74.572 35.5836C74.572 34.2636 74.312 33.2276 73.792 32.4756C73.272 31.7156 72.48 31.3356 71.416 31.3356C70.664 31.3356 70.032 31.5236 69.52 31.8996C69.016 32.2676 68.64 32.7716 68.392 33.4116C68.144 34.0516 68.02 34.7756 68.02 35.5836C68.02 36.3996 68.14 37.1276 68.38 37.7676C68.628 38.4076 68.996 38.9116 69.484 39.2796C69.98 39.6476 70.592 39.8316 71.32 39.8316ZM90.7045 31.1556C90.9125 31.5716 91.0445 32.0036 91.1005 32.4516C91.1645 32.8916 91.1965 33.4436 91.1965 34.1076V42.0636H88.6645V40.3236C88.1125 41.0516 87.4725 41.5836 86.7445 41.9196C86.0165 42.2556 85.1405 42.4236 84.1165 42.4236C83.2045 42.4236 82.4205 42.2516 81.7645 41.9076C81.1165 41.5556 80.6205 41.0836 80.2765 40.4916C79.9405 39.8996 79.7725 39.2396 79.7725 38.5116C79.7725 37.5596 80.0085 36.7636 80.4805 36.1236C80.9605 35.4836 81.7085 34.9876 82.7245 34.6356C83.2925 34.4516 83.9445 34.2956 84.6805 34.1676C85.4245 34.0316 86.4845 33.8596 87.8605 33.6516L88.3645 33.5796C88.3085 32.8276 88.0685 32.2756 87.6445 31.9236C87.2285 31.5716 86.5845 31.3956 85.7125 31.3956C85.0725 31.3956 84.4885 31.5436 83.9605 31.8396C83.4405 32.1356 83.0805 32.5916 82.8805 33.2076L80.2405 32.3796C80.5685 31.2436 81.1925 30.3556 82.1125 29.7156C83.0325 29.0676 84.2325 28.7436 85.7125 28.7436C86.9125 28.7436 87.9405 28.9396 88.7965 29.3316C89.6605 29.7236 90.2965 30.3316 90.7045 31.1556ZM88.0405 37.9716C88.2165 37.5476 88.3125 36.8756 88.3285 35.9556C87.0725 36.1556 86.1685 36.3076 85.6165 36.4116C85.0725 36.5076 84.5925 36.6276 84.1765 36.7716C83.6565 36.9636 83.2645 37.1956 83.0005 37.4676C82.7365 37.7396 82.6045 38.0756 82.6045 38.4756C82.6045 38.9636 82.7845 39.3596 83.1445 39.6636C83.5125 39.9676 84.0285 40.1196 84.6925 40.1196C85.3085 40.1196 85.8485 40.0116 86.3125 39.7956C86.7845 39.5716 87.1645 39.2956 87.4525 38.9676C87.7405 38.6396 87.9365 38.3076 88.0405 37.9716ZM102.853 24.7836H105.769V42.0636H103.213V41.1036C102.245 41.9836 101.013 42.4236 99.5166 42.4236C98.3486 42.4236 97.3126 42.1276 96.4086 41.5356C95.5126 40.9356 94.8206 40.1196 94.3326 39.0876C93.8446 38.0476 93.6006 36.8796 93.6006 35.5836C93.6006 34.2716 93.8486 33.0996 94.3446 32.0676C94.8406 31.0276 95.5446 30.2156 96.4566 29.6316C97.3686 29.0396 98.4246 28.7436 99.6246 28.7436C100.873 28.7436 101.949 29.0756 102.853 29.7396V24.7836ZM99.9606 39.8316C101.073 39.8316 101.893 39.4556 102.421 38.7036C102.949 37.9436 103.213 36.9036 103.213 35.5836C103.213 34.2636 102.953 33.2276 102.433 32.4756C101.913 31.7156 101.121 31.3356 100.057 31.3356C99.3046 31.3356 98.6726 31.5236 98.1606 31.8996C97.6566 32.2676 97.2806 32.7716 97.0326 33.4116C96.7846 34.0516 96.6606 34.7756 96.6606 35.5836C96.6606 36.3996 96.7806 37.1276 97.0206 37.7676C97.2686 38.4076 97.6366 38.9116 98.1246 39.2796C98.6206 39.6476 99.2326 39.8316 99.9606 39.8316ZM114.857 42.4236C113.577 42.4236 112.449 42.1356 111.473 41.5596C110.497 40.9756 109.741 40.1676 109.205 39.1356C108.677 38.0956 108.413 36.9116 108.413 35.5836C108.413 34.2396 108.681 33.0516 109.217 32.0196C109.761 30.9796 110.521 30.1756 111.497 29.6076C112.473 29.0316 113.593 28.7436 114.857 28.7436C116.145 28.7436 117.277 29.0356 118.253 29.6196C119.229 30.1956 119.985 31.0036 120.521 32.0436C121.057 33.0756 121.325 34.2556 121.325 35.5836C121.325 36.9196 121.053 38.1076 120.509 39.1476C119.973 40.1796 119.213 40.9836 118.229 41.5596C117.253 42.1356 116.129 42.4236 114.857 42.4236ZM114.857 39.7116C115.969 39.7116 116.813 39.3396 117.389 38.5956C117.973 37.8516 118.265 36.8476 118.265 35.5836C118.265 34.3036 117.973 33.2956 117.389 32.5596C116.813 31.8236 115.969 31.4556 114.857 31.4556C113.729 31.4556 112.881 31.8276 112.313 32.5716C111.753 33.3076 111.473 34.3116 111.473 35.5836C111.473 36.8716 111.761 37.8836 112.337 38.6196C112.921 39.3476 113.761 39.7116 114.857 39.7116ZM128.668 42.4236C127.068 42.4236 125.768 42.0636 124.768 41.3436C123.768 40.6236 123.16 39.6116 122.944 38.3076L125.896 37.8516C126.04 38.4996 126.372 39.0076 126.892 39.3756C127.42 39.7356 128.08 39.9156 128.872 39.9156C129.56 39.9156 130.096 39.7796 130.48 39.5076C130.864 39.2276 131.056 38.8476 131.056 38.3676C131.056 38.0556 130.98 37.8156 130.828 37.6476C130.684 37.4796 130.392 37.3156 129.952 37.1556C129.512 36.9876 128.78 36.7676 127.756 36.4956C126.66 36.2076 125.792 35.8996 125.152 35.5716C124.52 35.2356 124.064 34.8436 123.784 34.3956C123.504 33.9396 123.364 33.3836 123.364 32.7276C123.364 31.9276 123.572 31.2276 123.988 30.6276C124.412 30.0276 125.008 29.5636 125.776 29.2356C126.552 28.9076 127.448 28.7436 128.464 28.7436C129.464 28.7436 130.356 28.8996 131.14 29.2116C131.924 29.5236 132.556 29.9716 133.036 30.5556C133.524 31.1316 133.82 31.8036 133.924 32.5716L130.972 33.0996C130.892 32.5476 130.636 32.1116 130.204 31.7916C129.78 31.4716 129.216 31.2916 128.512 31.2516C127.832 31.2196 127.284 31.3276 126.868 31.5756C126.452 31.8156 126.244 32.1516 126.244 32.5836C126.244 32.8476 126.328 33.0636 126.496 33.2316C126.672 33.3996 127.004 33.5716 127.492 33.7476C127.98 33.9156 128.744 34.1316 129.784 34.3956C130.832 34.6676 131.66 34.9716 132.268 35.3076C132.884 35.6436 133.328 36.0476 133.6 36.5196C133.88 36.9836 134.02 37.5556 134.02 38.2356C134.02 39.0996 133.804 39.8476 133.372 40.4796C132.948 41.1036 132.332 41.5836 131.524 41.9196C130.724 42.2556 129.772 42.4236 128.668 42.4236Z" fill="url(#paint1_linear_56_214)"/>
<defs>
<linearGradient id="paint0_linear_56_214" x1="32.5" y1="10.0635" x2="32.5" y2="55.0638" gradientUnits="userSpaceOnUse">
<stop stop-color="#1153FC"/>
<stop offset="1" stop-color="#3F6FEB"/>
</linearGradient>
<linearGradient id="paint1_linear_56_214" x1="99.5" y1="18.0636" x2="99.5" y2="47.0636" gradientUnits="userSpaceOnUse">
<stop stop-color="#1153FC"/>
<stop offset="1" stop-color="#3F6FEB"/>
</linearGradient>
</defs>
</svg>
