<svg width="100%" height="100%" viewBox="0 0 64 65" fill="none" xmlns="http://www.w3.org/2000/svg">
<rect y="0.0634766" width="63.9995" height="64" rx="5.48669" fill="#FFFFF6"/>
<path fill-rule="evenodd" clip-rule="evenodd" d="M54.1489 31.0302L59.0522 27.7923C59.5652 27.4534 59.5489 26.6957 59.0222 26.3792L32.4012 10.3786C32.1366 10.2193 31.8054 10.2193 31.5407 10.3786L4.97725 26.3446C4.43685 26.6692 4.43735 27.4529 4.97827 27.777L10.4694 31.0678C10.7813 31.2551 11.1772 31.2169 11.4515 30.9772C15.8195 27.1628 23.1268 23.8084 31.9712 23.8084C40.8157 23.8084 48.7326 27.1572 53.1454 30.9676C53.4278 31.2108 53.838 31.2357 54.1489 31.0302ZM48.0478 31.3681V36.82C48.0478 37.3884 47.4901 37.7919 46.9513 37.6097C44.7906 36.8821 39.5275 35.4267 31.9709 35.4267C28.8394 35.4267 26.1033 35.6766 23.817 36.0211C23.4094 36.0821 23.1086 36.4327 23.1086 36.8444V41.4394V49.8626C23.1086 50.5078 22.4064 50.9078 21.8512 50.5775L20.2845 49.6463C19.8642 49.3965 19.3202 49.5608 19.108 50.001L17.4781 53.3946C17.0949 54.193 15.895 53.9197 15.895 53.0343V41.4394V31.3681C15.895 31.0948 16.0273 30.8383 16.2533 30.6842C16.7764 30.3244 17.3524 29.9799 17.9804 29.6552C21.691 27.7338 26.6595 26.6764 31.9709 26.6764C37.2824 26.6764 42.2519 27.7338 45.9615 29.6552C46.5895 29.9799 47.1665 30.3244 47.6896 30.6842C47.9145 30.8383 48.0478 31.0948 48.0478 31.3681Z" fill="#5581F1"/>
</svg>
