<svg width="305" height="237" viewBox="0 0 305 237" fill="none" xmlns="http://www.w3.org/2000/svg">
<path d="M298.017 124.603C304.002 128.171 304.092 133.975 298.017 137.544L163.891 217.332C160.509 219.091 156.77 220.008 152.977 220.008C149.184 220.008 145.444 219.091 142.063 217.332L7.06824 137.544C1.08378 133.975 0.994036 128.171 6.99345 124.603L141.12 44.8153C144.501 43.056 148.241 42.139 152.034 42.139C155.827 42.139 159.567 43.056 162.948 44.8153L298.017 124.603Z" fill="url(#paint0_linear_373_1747)"/>
<path d="M298.017 124.603C304.002 128.171 304.092 133.975 298.017 137.544L163.891 217.332C160.509 219.091 156.77 220.008 152.977 220.008C149.184 220.008 145.444 219.091 142.063 217.332L7.06824 137.544C1.08378 133.975 0.994036 128.171 6.99345 124.603L141.12 44.8153C144.501 43.056 148.241 42.139 152.034 42.139C155.827 42.139 159.567 43.056 162.948 44.8153L298.017 124.603Z" fill="white" fill-opacity="0.2"/>
<path d="M299.334 123.822C306.111 127.819 306.141 134.328 299.424 138.34L165.297 218.128C158.565 222.125 147.568 222.125 140.806 218.128L5.79637 138.34C-0.981023 134.328 -1.01093 127.819 5.72159 123.822L139.848 43.9728C146.566 39.9604 157.562 39.9604 164.34 43.9728L299.334 123.822ZM163.951 217.331L298.077 137.544C304.062 133.975 304.062 128.171 298.077 124.603L163.083 44.8151C159.701 43.0558 155.962 42.1388 152.169 42.1388C148.376 42.1388 144.636 43.0558 141.255 44.8151L7.12794 124.603C1.14348 128.171 1.14346 133.975 7.20272 137.544L142.137 217.331C145.519 219.091 149.258 220.008 153.051 220.008C156.845 220.008 160.584 219.091 163.966 217.331H163.951Z" fill="#33509E"/>
<path d="M304.436 131.127V146.824C304.436 149.427 302.76 152.046 299.424 154.037V138.34C302.76 136.349 304.436 133.746 304.436 131.127Z" fill="#33509E"/>
<path d="M304.436 131.264V146.962C304.43 147.306 304.395 147.649 304.331 147.988V132.29C304.396 131.952 304.431 131.609 304.436 131.264Z" fill="#33509E"/>
<path d="M304.331 132.306V148.003C304.257 148.341 304.162 148.673 304.047 148.999V133.301C304.164 132.977 304.259 132.644 304.331 132.306Z" fill="#33509E"/>
<path d="M304.047 133.301V148.998C303.917 149.347 303.762 149.685 303.583 150.009V134.312C303.756 133.984 303.911 133.647 304.047 133.301Z" fill="#33509E"/>
<path d="M303.583 134.328V150.025C303.375 150.394 303.14 150.747 302.88 151.081V135.384C303.146 135.055 303.382 134.702 303.583 134.328Z" fill="#33509E"/>
<path d="M302.88 135.369V151.066C302.558 151.489 302.203 151.883 301.818 152.245V136.548C302.207 136.19 302.562 135.795 302.88 135.369Z" fill="#33509E"/>
<path d="M301.818 136.548V152.245C301.147 152.871 300.415 153.426 299.633 153.899V138.202C300.418 137.733 301.15 137.179 301.818 136.548Z" fill="#33509E"/>
<path d="M299.634 138.202V153.899L299.424 154.037V138.34L299.634 138.202Z" fill="#33509E"/>
<path d="M0.649902 146.717V131.02C0.649902 133.669 2.34052 136.318 5.75166 138.34V154.037C2.34052 152.016 0.649902 149.366 0.649902 146.717Z" fill="#33509E"/>
<path d="M5.79664 138.34V154.037C2.3855 152.016 0.694885 149.366 0.694885 146.717V131.02C0.694885 133.669 2.3855 136.319 5.79664 138.34Z" fill="#33509E"/>
<path d="M299.424 138.34L299.379 154.037L165.252 233.81L165.297 218.128L299.424 138.34Z" fill="#33509E"/>
<path d="M140.806 218.128L140.761 233.81L5.75153 154.037L5.79641 138.34L140.806 218.128Z" fill="#33509E"/>
<path d="M165.297 218.128V233.81C158.564 237.822 147.568 237.822 140.806 233.81V218.128C147.568 222.125 158.594 222.125 165.297 218.128Z" fill="#33509E"/>
<path d="M165.297 218.128V233.81C164.098 234.516 162.829 235.091 161.512 235.525V219.828C162.825 219.389 164.093 218.82 165.297 218.128Z" fill="#33509E"/>
<path d="M161.586 219.828V235.525C160.513 235.874 159.418 236.15 158.31 236.352V220.655C159.42 220.46 160.515 220.184 161.586 219.828Z" fill="#33509E"/>
<path d="M158.236 220.655V236.352C157.502 236.49 156.739 236.597 156.021 236.674V220.976C156.769 220.9 157.517 220.793 158.236 220.655Z" fill="#33509E"/>
<path d="M156.021 220.976V236.673C155.378 236.673 154.734 236.781 154.091 236.796V221.114L156.021 220.976Z" fill="#33509E"/>
<path d="M154.106 221.114V236.796C153.522 236.796 152.924 236.796 152.326 236.796V221.099L154.106 221.114Z" fill="#33509E"/>
<path d="M152.31 221.114V236.811L150.605 236.72V221.022L152.31 221.114Z" fill="#33509E"/>
<path d="M150.605 221.022V236.719C150.037 236.719 149.468 236.597 148.915 236.52V220.823C149.468 220.915 150.037 220.976 150.605 221.022Z" fill="#33509E"/>
<path d="M148.915 220.823V236.52C148.331 236.444 147.763 236.337 147.194 236.214V220.517C147.763 220.639 148.331 220.747 148.915 220.823Z" fill="#33509E"/>
<path d="M147.194 220.517V236.214C146.581 236.092 145.982 235.939 145.384 235.77V220.073C145.982 220.241 146.581 220.394 147.194 220.517Z" fill="#33509E"/>
<path d="M145.384 220.088V235.785C144.666 235.571 143.963 235.326 143.289 235.05V219.353C143.963 219.629 144.666 219.874 145.384 220.088Z" fill="#33509E"/>
<path d="M143.289 219.338V235.035C142.432 234.692 141.602 234.282 140.806 233.81V218.128C141.602 218.595 142.432 218.999 143.289 219.338Z" fill="#33509E"/>
<path d="M273.796 124.787V137.345C273.796 139.749 272.3 142.153 269.173 143.976V131.433C272.21 129.595 273.796 127.191 273.796 124.787Z" fill="#33509E"/>
<path d="M273.796 124.787V137.345V137.498V124.94C273.804 124.889 273.804 124.837 273.796 124.787Z" fill="#33509E"/>
<path d="M273.796 124.94V137.497C273.79 137.812 273.755 138.124 273.691 138.432V125.874C273.763 125.568 273.798 125.254 273.796 124.94Z" fill="#33509E"/>
<path d="M273.646 125.874V138.432C273.582 138.744 273.497 139.051 273.392 139.351V126.793C273.504 126.495 273.589 126.188 273.646 125.874Z" fill="#33509E"/>
<path d="M273.392 126.793V139.351C273.272 139.673 273.126 139.986 272.958 140.285V127.727C273.125 127.429 273.265 127.116 273.377 126.793H273.392Z" fill="#33509E"/>
<path d="M272.972 127.727V140.285C272.784 140.62 272.574 140.943 272.344 141.25V128.692C272.582 128.388 272.797 128.065 272.987 127.727H272.972Z" fill="#33509E"/>
<path d="M272.3 128.692V141.25C272.003 141.641 271.672 142.005 271.312 142.337V129.779C271.672 129.448 272.003 129.084 272.3 128.692Z" fill="#33509E"/>
<path d="M271.342 129.733V142.291C270.722 142.871 270.045 143.384 269.322 143.822V131.265C270.038 130.823 270.709 130.31 271.327 129.733H271.342Z" fill="#33509E"/>
<path d="M269.307 131.265V143.822L269.113 143.929V131.387C269.172 131.337 269.237 131.296 269.307 131.265Z" fill="#33509E"/>
<path d="M32.2924 137.253V124.695C32.2924 127.13 33.7886 129.58 37.0052 131.433V143.991C33.8484 142.138 32.2775 139.688 32.2924 137.253Z" fill="#33509E"/>
<path d="M37.0349 131.433V143.991C33.893 142.138 32.3221 139.688 32.3371 137.253V124.695C32.3371 127.13 33.8332 129.58 37.0498 131.433H37.0349Z" fill="#33509E"/>
<path d="M269.143 131.433L269.098 143.976L164.654 206.122L164.684 193.564L269.143 131.433Z" fill="#33509E"/>
<path d="M142.152 193.564L142.122 206.122L36.9905 143.991L37.0354 131.433L142.152 193.564Z" fill="#33509E"/>
<path d="M164.684 193.564V206.122C161.192 207.934 157.333 208.878 153.418 208.878C149.503 208.878 145.644 207.934 142.152 206.122V193.564C145.644 195.376 149.503 196.32 153.418 196.32C157.333 196.32 161.192 195.376 164.684 193.564Z" fill="#33509E"/>
<path d="M164.684 193.564V206.121C163.577 206.754 162.408 207.267 161.198 207.653V195.095C162.409 194.712 163.578 194.199 164.684 193.564Z" fill="#33509E"/>
<path d="M161.197 195.126V207.683C160.219 208.011 159.219 208.267 158.205 208.449V195.891C159.219 195.71 160.219 195.454 161.197 195.126Z" fill="#33509E"/>
<path d="M158.191 195.891V208.449C157.532 208.572 156.844 208.679 156.156 208.74V196.182C156.829 196.182 157.517 196.014 158.191 195.891Z" fill="#33509E"/>
<path d="M156.156 196.182V208.74C155.573 208.74 154.989 208.847 154.391 208.863V196.305C154.989 196.305 155.573 196.305 156.171 196.182H156.156Z" fill="#33509E"/>
<path d="M154.376 196.305V208.863H152.745V196.305C153.284 196.305 153.837 196.305 154.376 196.305Z" fill="#33509E"/>
<path d="M152.745 196.32V208.878C152.221 208.878 151.683 208.878 151.174 208.786V196.228L152.67 196.32H152.745Z" fill="#33509E"/>
<path d="M151.114 196.228V208.786C150.591 208.786 150.067 208.679 149.618 208.602V196.045C150.127 196.121 150.65 196.182 151.114 196.228Z" fill="#33509E"/>
<path d="M149.618 196.044V208.602C149.079 208.526 148.556 208.434 148.032 208.326V195.769C148.556 195.876 149.094 195.968 149.618 196.044Z" fill="#33509E"/>
<path d="M148.032 195.769V208.327C147.463 208.204 146.91 208.066 146.371 207.913V195.355L148.032 195.769Z" fill="#33509E"/>
<path d="M146.372 195.355V207.913C145.713 207.714 145.07 207.5 144.442 207.239V194.682C145.07 194.942 145.713 195.156 146.372 195.355Z" fill="#33509E"/>
<path d="M144.441 194.682V207.239C143.654 206.922 142.889 206.549 142.152 206.122V193.564C142.886 193.997 143.651 194.371 144.441 194.682Z" fill="#33509E"/>
<path d="M269.068 118.064C275.292 121.754 275.337 127.742 269.143 131.433L164.684 193.564C161.193 195.376 157.333 196.32 153.419 196.32C149.504 196.32 145.644 195.376 142.153 193.564L37.0358 131.433C30.7821 127.742 30.7522 121.754 36.9461 118.064L141.405 55.9333C144.895 54.1175 148.755 53.1711 152.67 53.1711C156.586 53.1711 160.446 54.1175 163.936 55.9333L269.068 118.064Z" fill="url(#paint1_linear_373_1747)"/>
<path d="M269.068 118.064C275.292 121.754 275.337 127.742 269.143 131.433L164.684 193.564C161.193 195.376 157.333 196.32 153.419 196.32C149.504 196.32 145.644 195.376 142.153 193.564L37.0358 131.433C30.7821 127.742 30.7522 121.754 36.9461 118.064L141.405 55.9333C144.895 54.1175 148.755 53.1711 152.67 53.1711C156.586 53.1711 160.446 54.1175 163.936 55.9333L269.068 118.064Z" fill="white" fill-opacity="0.3"/>
<path d="M225.037 113.421C229.3 115.932 229.33 120.021 225.037 122.609L152.535 165.734C150.152 166.981 147.514 167.63 144.837 167.63C142.161 167.63 139.523 166.981 137.14 165.734L64.0546 122.548C59.7907 120.036 59.7608 115.947 64.0546 113.359L136.661 70.1728C139.045 68.9302 141.683 68.2825 144.359 68.2825C147.034 68.2825 149.672 68.9302 152.056 70.1728L225.037 113.421Z" fill="url(#paint2_linear_373_1747)"/>
<path d="M62.6774 121.598C63.0692 121.243 63.4953 120.931 63.9491 120.664L136.555 77.4776C138.94 76.235 141.577 75.5873 144.253 75.5873C146.929 75.5873 149.566 76.235 151.95 77.4776L225.036 120.679C225.506 120.947 225.948 121.265 226.352 121.629C229.255 119.117 228.821 115.656 225.036 113.436L151.95 70.2339C149.566 68.9914 146.929 68.3436 144.253 68.3436C141.577 68.3436 138.94 68.9914 136.555 70.2339L63.9491 113.42C60.2088 115.58 59.7749 119.087 62.6774 121.598Z" fill="#05153E"/>
<path d="M136.517 6.59656L136.564 64.9177L209.581 107.659L209.534 49.3381L136.517 6.59656Z" fill="#4369CA"/>
<path d="M134.04 7.18051L137.916 4.92388L137.813 64.2749L133.939 66.5297L134.04 7.18051Z" fill="#E6E4B7"/>
<path d="M133.939 66.5298L137.813 64.275L210.962 106.425L207.084 108.682L133.939 66.5298Z" fill="#FFFFF6"/>
<path d="M209.533 47.9927L213.409 45.7343L213.298 110.468L209.424 112.723L209.533 47.9927Z" fill="#E6E4B7"/>
<path d="M131.702 3.13937L135.579 0.882739L213.409 45.7343L209.533 47.9928L131.702 3.13937Z" fill="#FFFFF6"/>
<path d="M131.703 3.13952L209.533 47.9929L209.424 112.723L131.59 67.8714L131.703 3.13952ZM207.083 108.682L207.184 49.3346L134.039 7.18053L133.938 66.5297L207.083 108.682Z" fill="#FFFEEB"/>
<g style="mix-blend-mode:overlay">
<path d="M167.97 61.0304L185.967 81.8294L193.245 96.5977L182.826 90.3089L167.974 65.9015L167.97 61.0304Z" fill="#686868"/>
</g>
<defs>
<linearGradient id="paint0_linear_373_1747" x1="240.643" y1="173.073" x2="32.0013" y2="78.1001" gradientUnits="userSpaceOnUse">
<stop stop-color="#396CEE"/>
<stop offset="1" stop-color="#1241BB"/>
</linearGradient>
<linearGradient id="paint1_linear_373_1747" x1="223.949" y1="158.547" x2="56.035" y2="82.1145" gradientUnits="userSpaceOnUse">
<stop stop-color="#396CEE"/>
<stop offset="1" stop-color="#1241BB"/>
</linearGradient>
<linearGradient id="paint2_linear_373_1747" x1="193.708" y1="141.415" x2="77.2472" y2="88.4549" gradientUnits="userSpaceOnUse">
<stop stop-color="#396CEE"/>
<stop offset="1" stop-color="#1241BB"/>
</linearGradient>
</defs>
</svg>
