<svg width="510" height="339" viewBox="0 0 510 339" fill="none" xmlns="http://www.w3.org/2000/svg">
<path d="M271.82 41.9145C166.113 60.6104 -18.7204 36.9122 1.58319 92.2226C9.96011 115.043 158.016 118.072 208.751 167.141C280.985 237.002 265.333 351.973 305.597 337.193C351.003 320.525 353.302 280.928 390.772 189.533C428.242 98.1385 428.693 -12.3693 390.772 1.73496C352.852 15.8392 309.596 35.2333 271.82 41.9145Z" fill="url(#paint0_linear_437_2301)" fill-opacity="0.7"/>
<path d="M390.181 253.848C172.329 411.832 -73.4543 177.563 122.126 141.035C281.205 111.324 502.178 96.5624 509.644 141.035C517.109 185.507 390.181 253.848 390.181 253.848Z" fill="url(#paint1_linear_437_2301)" fill-opacity="0.7"/>
<path d="M431.038 161.241C437.561 165.13 437.659 171.457 431.038 175.346L284.838 262.317C281.152 264.234 277.076 265.234 272.941 265.234C268.806 265.234 264.73 264.234 261.044 262.317L113.898 175.346C107.375 171.457 107.277 165.13 113.816 161.241L260.017 74.2707C263.703 72.353 267.779 71.3535 271.914 71.3535C276.048 71.3535 280.124 72.353 283.81 74.2707L431.038 161.241Z" fill="url(#paint2_linear_437_2301)"/>
<path d="M431.038 161.241C437.561 165.13 437.659 171.457 431.038 175.346L284.838 262.317C281.152 264.234 277.076 265.234 272.941 265.234C268.806 265.234 264.73 264.234 261.044 262.317L113.898 175.346C107.375 171.457 107.277 165.13 113.816 161.241L260.017 74.2707C263.703 72.353 267.779 71.3535 271.914 71.3535C276.048 71.3535 280.124 72.353 283.81 74.2707L431.038 161.241Z" fill="white" fill-opacity="0.2"/>
<path d="M432.473 160.389C439.861 164.746 439.893 171.84 432.571 176.214L286.37 263.184C279.032 267.541 267.046 267.541 259.674 263.184L112.512 176.214C105.124 171.84 105.092 164.746 112.43 160.389L258.631 73.3519C265.953 68.9784 277.939 68.9784 285.327 73.3519L432.473 160.389ZM284.903 262.316L431.103 175.346C437.627 171.456 437.627 165.13 431.103 161.24L283.957 74.2701C280.271 72.3524 276.195 71.3529 272.06 71.3529C267.926 71.3529 263.849 72.3524 260.164 74.2701L113.963 161.24C107.44 165.13 107.44 171.456 114.045 175.346L261.126 262.316C264.812 264.234 268.888 265.233 273.022 265.233C277.157 265.233 281.233 264.234 284.919 262.316H284.903Z" fill="#33509E"/>
<path d="M438.034 168.352V185.462C438.034 188.3 436.208 191.154 432.571 193.324V176.214C436.208 174.044 438.034 171.206 438.034 168.352Z" fill="#33509E"/>
<path d="M438.035 168.501V185.612C438.028 185.987 437.99 186.361 437.92 186.73V169.62C437.991 169.251 438.029 168.877 438.035 168.501Z" fill="#33509E"/>
<path d="M437.92 169.637V186.747C437.84 187.115 437.736 187.477 437.611 187.832V170.722C437.739 170.368 437.842 170.005 437.92 169.637Z" fill="#33509E"/>
<path d="M437.611 170.722V187.832C437.469 188.212 437.3 188.58 437.105 188.934V171.823C437.293 171.466 437.462 171.098 437.611 170.722Z" fill="#33509E"/>
<path d="M437.105 171.84V188.951C436.878 189.353 436.621 189.738 436.338 190.102V172.992C436.629 172.634 436.885 172.248 437.105 171.84Z" fill="#33509E"/>
<path d="M436.338 172.975V190.085C435.988 190.546 435.601 190.976 435.18 191.371V174.26C435.605 173.87 435.992 173.439 436.338 172.975Z" fill="#33509E"/>
<path d="M435.181 174.261V191.372C434.449 192.054 433.651 192.658 432.8 193.174V176.064C433.655 175.553 434.453 174.949 435.181 174.261Z" fill="#33509E"/>
<path d="M432.8 176.063V193.174L432.572 193.324V176.214L432.8 176.063Z" fill="#33509E"/>
<path d="M106.902 185.345V168.235C106.902 171.123 108.745 174.011 112.463 176.214V193.324C108.745 191.121 106.902 188.233 106.902 185.345Z" fill="#33509E"/>
<path d="M112.512 176.214V193.324C108.794 191.121 106.951 188.233 106.951 185.345V168.235C106.951 171.123 108.794 174.011 112.512 176.214Z" fill="#33509E"/>
<path d="M432.571 176.214L432.522 193.324L286.322 280.278L286.37 263.184L432.571 176.214Z" fill="#33509E"/>
<path d="M259.674 263.184L259.625 280.278L112.463 193.324L112.512 176.214L259.674 263.184Z" fill="#33509E"/>
<path d="M286.37 263.184V280.278C279.032 284.651 267.045 284.651 259.674 280.278V263.184C267.045 267.541 279.064 267.541 286.37 263.184Z" fill="#33509E"/>
<path d="M286.371 263.184V280.278C285.063 281.047 283.68 281.674 282.245 282.147V265.037C283.676 264.559 285.058 263.938 286.371 263.184Z" fill="#33509E"/>
<path d="M282.325 265.037V282.147C281.155 282.528 279.962 282.829 278.754 283.049V265.939C279.964 265.727 281.157 265.426 282.325 265.037Z" fill="#33509E"/>
<path d="M278.673 265.938V283.049C277.874 283.199 277.042 283.316 276.26 283.399V266.289C277.075 266.206 277.89 266.089 278.673 265.938Z" fill="#33509E"/>
<path d="M276.259 266.289V283.399C275.558 283.399 274.857 283.516 274.156 283.533V266.439L276.259 266.289Z" fill="#33509E"/>
<path d="M274.172 266.439V283.533C273.536 283.533 272.883 283.533 272.231 283.533V266.422L274.172 266.439Z" fill="#33509E"/>
<path d="M272.215 266.439V283.549L270.355 283.449V266.339L272.215 266.439Z" fill="#33509E"/>
<path d="M270.356 266.339V283.449C269.736 283.449 269.117 283.316 268.513 283.232V266.122C269.117 266.222 269.736 266.289 270.356 266.339Z" fill="#33509E"/>
<path d="M268.513 266.122V283.232C267.877 283.149 267.258 283.032 266.638 282.898V265.788C267.258 265.922 267.877 266.039 268.513 266.122Z" fill="#33509E"/>
<path d="M266.638 265.788V282.899C265.969 282.765 265.317 282.598 264.665 282.414V265.304C265.317 265.488 265.969 265.655 266.638 265.788Z" fill="#33509E"/>
<path d="M264.664 265.321V282.431C263.882 282.197 263.115 281.93 262.381 281.63V264.52C263.115 264.82 263.882 265.087 264.664 265.321Z" fill="#33509E"/>
<path d="M262.381 264.503V281.613C261.447 281.239 260.542 280.792 259.674 280.278V263.184C260.542 263.693 261.447 264.134 262.381 264.503Z" fill="#33509E"/>
<path d="M404.637 161.441V175.129C404.637 177.75 403.006 180.371 399.597 182.357V168.686C402.908 166.682 404.637 164.062 404.637 161.441Z" fill="#33509E"/>
<path d="M404.636 161.441V175.129V175.296V161.608C404.646 161.553 404.646 161.496 404.636 161.441Z" fill="#33509E"/>
<path d="M404.636 161.608V175.297C404.63 175.639 404.592 175.98 404.522 176.315V162.627C404.6 162.293 404.638 161.951 404.636 161.608Z" fill="#33509E"/>
<path d="M404.473 162.626V176.314C404.403 176.654 404.31 176.989 404.196 177.316V163.628C404.318 163.303 404.411 162.968 404.473 162.626Z" fill="#33509E"/>
<path d="M404.195 163.627V177.316C404.065 177.668 403.906 178.008 403.722 178.334V164.646C403.904 164.321 404.057 163.98 404.179 163.627H404.195Z" fill="#33509E"/>
<path d="M403.738 164.646V178.334C403.533 178.7 403.304 179.051 403.053 179.386V165.698C403.313 165.366 403.547 165.014 403.755 164.646H403.738Z" fill="#33509E"/>
<path d="M403.005 165.698V179.386C402.682 179.813 402.321 180.21 401.929 180.571V166.883C402.321 166.521 402.682 166.125 403.005 165.698Z" fill="#33509E"/>
<path d="M401.961 166.833V180.521C401.285 181.154 400.548 181.713 399.76 182.191V168.502C400.54 168.021 401.272 167.462 401.945 166.833H401.961Z" fill="#33509E"/>
<path d="M399.743 168.501V182.19L399.531 182.307V168.635C399.596 168.581 399.667 168.536 399.743 168.501Z" fill="#33509E"/>
<path d="M141.393 175.03V161.341C141.393 163.995 143.024 166.666 146.53 168.686V182.374C143.089 180.355 141.376 177.684 141.393 175.03Z" fill="#33509E"/>
<path d="M146.562 168.686V182.374C143.137 180.355 141.425 177.684 141.441 175.03V161.341C141.441 163.995 143.072 166.666 146.578 168.686H146.562Z" fill="#33509E"/>
<path d="M399.564 168.686L399.515 182.358L285.67 250.098L285.702 236.409L399.564 168.686Z" fill="#33509E"/>
<path d="M261.142 236.409L261.11 250.098L146.514 182.374L146.563 168.686L261.142 236.409Z" fill="#33509E"/>
<path d="M285.702 236.409V250.097C281.896 252.073 277.689 253.102 273.422 253.102C269.155 253.102 264.948 252.073 261.142 250.097V236.409C264.948 238.385 269.155 239.414 273.422 239.414C277.689 239.414 281.896 238.385 285.702 236.409Z" fill="#33509E"/>
<path d="M285.701 236.409V250.097C284.495 250.787 283.221 251.346 281.902 251.767V238.078C283.222 237.661 284.496 237.101 285.701 236.409Z" fill="#33509E"/>
<path d="M281.901 238.111V251.8C280.835 252.156 279.745 252.435 278.64 252.634V238.946C279.745 238.748 280.835 238.469 281.901 238.111Z" fill="#33509E"/>
<path d="M278.624 238.946V252.634C277.906 252.768 277.156 252.885 276.406 252.952V239.263C277.14 239.263 277.89 239.08 278.624 238.946Z" fill="#33509E"/>
<path d="M276.406 239.263V252.951C275.77 252.951 275.134 253.068 274.482 253.085V239.397C275.134 239.397 275.77 239.397 276.423 239.263H276.406Z" fill="#33509E"/>
<path d="M274.466 239.397V253.086H272.688V239.397C273.275 239.397 273.878 239.397 274.466 239.397Z" fill="#33509E"/>
<path d="M272.688 239.414V253.102C272.117 253.102 271.53 253.102 270.976 253.002V239.313L272.606 239.414H272.688Z" fill="#33509E"/>
<path d="M270.911 239.314V253.002C270.34 253.002 269.769 252.885 269.28 252.802V239.113C269.834 239.197 270.405 239.264 270.911 239.314Z" fill="#33509E"/>
<path d="M269.28 239.113V252.801C268.693 252.718 268.122 252.618 267.551 252.501V238.812C268.122 238.929 268.709 239.029 269.28 239.113Z" fill="#33509E"/>
<path d="M267.551 238.813V252.501C266.931 252.367 266.328 252.217 265.74 252.05V238.362L267.551 238.813Z" fill="#33509E"/>
<path d="M265.741 238.362V252.05C265.023 251.833 264.322 251.599 263.637 251.316V237.627C264.322 237.911 265.023 238.145 265.741 238.362Z" fill="#33509E"/>
<path d="M263.637 237.628V251.316C262.778 250.97 261.945 250.563 261.142 250.097V236.409C261.941 236.882 262.776 237.289 263.637 237.628Z" fill="#33509E"/>
<path d="M399.483 154.113C406.267 158.136 406.316 164.663 399.564 168.686L285.702 236.409C281.897 238.385 277.69 239.414 273.423 239.414C269.155 239.414 264.948 238.385 261.143 236.409L146.563 168.686C139.746 164.663 139.714 158.136 146.465 154.113L260.327 86.3898C264.132 84.4105 268.339 83.3789 272.607 83.3789C276.875 83.3789 281.082 84.4105 284.887 86.3898L399.483 154.113Z" fill="url(#paint3_linear_437_2301)"/>
<path d="M399.483 154.113C406.267 158.136 406.316 164.663 399.564 168.686L285.702 236.409C281.897 238.385 277.69 239.414 273.423 239.414C269.155 239.414 264.948 238.385 261.143 236.409L146.563 168.686C139.746 164.663 139.714 158.136 146.465 154.113L260.327 86.3898C264.132 84.4105 268.339 83.3789 272.607 83.3789C276.875 83.3789 281.082 84.4105 284.887 86.3898L399.483 154.113Z" fill="white" fill-opacity="0.3"/>
<path d="M351.488 149.051C356.135 151.789 356.168 156.246 351.488 159.067L272.459 206.074C269.862 207.432 266.986 208.141 264.069 208.141C261.152 208.141 258.276 207.432 255.678 206.074L176.014 159C171.366 156.262 171.334 151.805 176.014 148.984L255.157 101.91C257.756 100.556 260.631 99.8496 263.547 99.8496C266.463 99.8496 269.339 100.556 271.937 101.91L351.488 149.051Z" fill="url(#paint4_linear_437_2301)"/>
<path d="M174.513 157.965C174.94 157.578 175.405 157.237 175.899 156.947L255.042 109.873C257.64 108.518 260.516 107.812 263.432 107.812C266.348 107.812 269.223 108.518 271.822 109.873L351.487 156.964C351.999 157.255 352.481 157.602 352.922 157.998C356.085 155.261 355.613 151.488 351.487 149.068L271.822 101.977C269.223 100.623 266.348 99.9165 263.432 99.9165C260.516 99.9165 257.64 100.623 255.042 101.977L175.899 149.051C171.822 151.405 171.349 155.227 174.513 157.965Z" fill="#05153E"/>
<g style="mix-blend-mode:overlay">
<path d="M324.423 164.65C308.768 179.882 270.915 205.473 244.733 192.85C218.552 180.227 201.269 175.49 209.451 158.52C217.632 141.55 245.489 138.026 271.671 150.649C297.852 163.272 332.605 147.68 324.423 164.65Z" fill="#686868"/>
</g>
<path d="M238.904 151.843L234.778 154.353V115.58H253.154L238.904 151.843Z" fill="#0B2567"/>
<path d="M234.778 154.354L230.652 151.844V103.598L234.778 106.108V154.354Z" fill="#05153E"/>
<path d="M265.856 123.847L234.744 141.81V106.108L265.856 88.1455V123.847Z" fill="#0B2567"/>
<path d="M234.84 106.052L230.715 103.542L261.633 85.6909L265.759 88.2011L234.84 106.052Z" fill="#7396F3"/>
<path d="M286.155 184.411L282.029 181.9V133.655L286.155 136.166V184.411Z" fill="#05153E"/>
<path d="M317.233 166.448L286.121 184.411V135.532L317.233 117.568V166.448Z" fill="#0B2567"/>
<path d="M286.235 133.271L282.109 130.76L313.028 112.91L317.154 115.42L286.235 133.271Z" fill="#7396F3"/>
<path d="M286.127 142.583L230.652 110.556V100.249L286.127 132.277V142.583Z" fill="#05153E"/>
<path d="M287.15 136.348L225.739 100.715V98.1143L287.15 133.748V136.348Z" fill="#4369CA"/>
<path d="M320.372 117.146L287.114 136.347V133.747L320.372 114.545V117.146Z" fill="#567DE3"/>
<path d="M287.125 133.805L225.806 98.1537L258.857 78.9712L320.176 114.624L287.125 133.805Z" fill="#7396F3"/>
<path d="M231.226 125.608C231.226 125.608 228.631 130.357 229.234 135.165C229.834 139.974 239.654 139.189 244.263 136.175C248.873 133.16 252.2 130.97 252.2 130.97C252.2 130.97 251.377 130.339 252.579 136.56C253.782 142.78 253.782 144.282 253.782 146.688C253.782 149.092 252.091 151.722 252.693 152.963C253.293 154.203 254.083 154.353 255.285 153.978C256.487 153.602 258.855 152.098 259.757 152.098C260.659 152.098 262.35 152.587 263.476 151.61C264.604 150.633 265.167 150.03 264.604 149.843C264.04 149.656 263.815 149.393 262.462 149.393C261.11 149.393 258.48 148.603 257.841 147.176C257.202 145.748 257.803 139.022 258.254 134.513C258.705 130.005 255.144 129.154 252.402 126.825C249.659 124.496 248.149 121.627 246.045 122.679C243.939 123.731 233.17 122.94 231.226 125.608Z" fill="black"/>
<path d="M276.396 155.103C276.023 156.162 274.075 158.566 273.282 158.867C272.488 159.167 269.217 158.566 268.809 158.602C268.399 158.638 264.672 160.514 263.17 159.348C261.667 158.181 262.906 155.56 263.255 154.358C263.303 154.178 263.363 153.962 263.435 153.697C263.82 152.134 264.265 148.923 262.304 143.489C260.177 137.585 262.365 133.677 262.689 133.149C262.509 133.341 261.559 134.171 256.486 137.561C250.245 141.733 241.456 145.112 237.705 142.034C237.236 141.649 236.828 141.156 236.479 140.616C233.364 135.758 236.503 129.266 242.19 128.268L247.24 127.378C247.24 127.378 252.239 129.291 255.846 129.628C259.453 129.976 268.001 133.991 268.049 137.442C268.085 140.904 267.644 153.192 267.644 153.192C267.644 153.192 273.571 154.562 274.028 154.695C274.557 154.839 276.78 154.058 276.396 155.103Z" fill="#FBD1C8"/>
<path d="M276.396 155.104C276.024 156.162 274.076 158.567 273.282 158.867C272.488 159.167 269.218 158.567 268.809 158.603C268.4 158.639 264.673 160.515 263.17 159.348C261.667 158.182 262.906 155.56 263.255 154.358C263.303 154.178 263.363 153.962 263.436 153.697C264.445 154.19 265.203 154.851 266.838 154.55C268.497 154.238 269.242 154.154 269.242 154.154C269.242 154.154 268.348 154.158 268.052 153.469C268.034 153.424 267.973 153.349 267.901 153.252C269.044 153.517 273.571 154.563 274.027 154.695C274.557 154.84 276.78 154.058 276.396 155.104Z" fill="black"/>
<path d="M291.413 99.8844L277.65 91.9395L268.86 97.0376L282.623 104.983L291.413 99.8844Z" fill="#567DE3"/>
<path d="M290.291 99.2711L290.222 95.6226L271.453 97.9212L281.5 104.37L290.291 99.2711Z" fill="#E8ECF6"/>
<path d="M268.449 97.0768L282.212 105.023C282.317 105.084 282.463 105.075 282.623 104.983L268.86 97.0376C268.7 97.1291 268.554 97.1373 268.449 97.0768Z" fill="#567DE3"/>
<path d="M268.289 97.3539L282.052 105.301C281.903 105.216 281.811 105.032 281.811 104.771L268.048 96.8252C268.048 97.085 268.14 97.2689 268.289 97.3539Z" fill="#567DE3"/>
<path d="M291.363 94.9554L277.601 87.0088L268.811 92.1061L282.573 100.051L291.363 94.9554Z" fill="#567DE3"/>
<path d="M281.762 101.457L267.999 93.5107L268.048 96.8242L281.811 104.77L281.762 101.457Z" fill="#567DE3"/>
<path d="M282.574 100.051L268.811 92.1055C268.363 92.3612 267.999 92.9921 267.999 93.5109L281.762 101.457C281.762 100.939 282.126 100.309 282.574 100.051Z" fill="#567DE3"/>
<path d="M291.426 100.126L291.412 99.8845L282.622 104.983C282.298 105.169 282.047 104.993 282.047 104.618L281.998 101.306C281.998 100.933 282.26 100.479 282.584 100.293L291.376 95.1966L291.363 94.9556L282.573 100.051C282.125 100.308 281.761 100.939 281.761 101.457L281.81 104.77C281.81 105.289 282.185 105.482 282.633 105.225L291.426 100.126Z" fill="#567DE3"/>
<path d="M272.037 96.271V98.7494L280.154 103.436V100.959L272.037 96.271Z" fill="white"/>
<path d="M278.63 100.079V102.556L280.154 103.435V100.959L278.63 100.079Z" fill="#314479"/>
<path d="M270.936 97.3821C271.185 97.2385 271.185 96.7733 270.936 96.3431C270.688 95.9129 270.285 95.6805 270.036 95.824C269.788 95.9676 269.788 96.4328 270.036 96.863C270.285 97.2932 270.688 97.5256 270.936 97.3821Z" fill="#465FA5"/>
<path d="M270.99 96.3249C271.264 96.8005 271.264 97.3169 270.99 97.4746C270.715 97.6331 270.267 97.3758 269.993 96.9002C269.718 96.4238 269.718 95.9082 269.993 95.7497C270.268 95.5903 270.715 95.8493 270.99 96.3249ZM270.892 96.3797C270.671 95.9964 270.311 95.7881 270.089 95.9164C269.868 96.0438 269.868 96.4606 270.089 96.8446C270.311 97.2287 270.671 97.4362 270.892 97.3079C271.114 97.1796 271.115 96.7637 270.892 96.3797Z" fill="#C5CCDB"/>
<path d="M291.413 94.3364L277.65 86.3906L268.86 91.4896L282.623 99.4346L291.413 94.3364Z" fill="#1E3B86"/>
<path d="M290.291 93.7232L290.222 90.0747L271.453 92.3733L281.5 98.8213L290.291 93.7232Z" fill="#E8ECF6"/>
<path d="M268.449 91.529L282.212 99.4748C282.317 99.5353 282.463 99.5271 282.623 99.4356L268.86 91.4897C268.7 91.5813 268.554 91.5894 268.449 91.529Z" fill="#1E3B86"/>
<path d="M268.289 91.8055L282.052 99.7522C281.903 99.6672 281.811 99.4833 281.811 99.2227L268.048 91.2769C268.048 91.5367 268.14 91.7197 268.289 91.8055Z" fill="#1E3B86"/>
<path d="M291.363 89.4076L277.601 81.4609L268.811 86.5574L282.573 94.5032L291.363 89.4076Z" fill="#1E3B86"/>
<path d="M281.762 95.9087L267.999 87.9629L268.048 91.2764L281.811 99.2222L281.762 95.9087Z" fill="#1E3B86"/>
<path d="M282.574 94.5028L268.811 86.5562C268.363 86.8127 267.999 87.4436 267.999 87.9624L281.762 95.9083C281.762 95.3902 282.126 94.7594 282.574 94.5028Z" fill="#1E3B86"/>
<path d="M291.426 94.5777L291.412 94.3367L282.622 99.4348C282.298 99.6211 282.047 99.4454 282.047 99.0703L281.998 95.7577C281.998 95.3851 282.26 94.9307 282.584 94.7452L291.376 89.648L291.363 89.4077L282.573 94.5034C282.125 94.7591 281.761 95.3908 281.761 95.9088L281.81 99.2223C281.81 99.7412 282.185 99.934 282.633 99.6775L291.426 94.5777Z" fill="#1E3B86"/>
<path d="M272.037 90.7231V93.2015L280.154 97.8878V95.4102L272.037 90.7231Z" fill="white"/>
<path d="M278.63 94.5298V97.0082L280.154 97.8874V95.4099L278.63 94.5298Z" fill="#DFE8F9"/>
<path d="M292.101 87.9462L278.338 79.9995L269.548 85.0984L283.311 93.0442L292.101 87.9462Z" fill="#567DE3"/>
<path d="M290.978 87.3336L290.909 83.6851L272.14 85.9837L282.188 92.4317L290.978 87.3336Z" fill="#E8ECF6"/>
<path d="M269.136 85.1382L282.899 93.084C283.005 93.1445 283.15 93.1363 283.311 93.0448L269.547 85.0981C269.387 85.1905 269.242 85.1995 269.136 85.1382Z" fill="#567DE3"/>
<path d="M268.977 85.4152L282.739 93.361C282.591 93.2761 282.499 93.093 282.499 92.8324L268.736 84.8857C268.736 85.1464 268.828 85.3302 268.977 85.4152Z" fill="#567DE3"/>
<path d="M292.051 83.0171L278.289 75.0713L269.499 80.1669L283.261 88.1136L292.051 83.0171Z" fill="#567DE3"/>
<path d="M282.45 89.5191L268.687 81.5732L268.736 84.8859L282.499 92.8317L282.45 89.5191Z" fill="#567DE3"/>
<path d="M283.261 88.1136L269.499 80.167C269.051 80.4236 268.687 81.0544 268.687 81.5733L282.45 89.5191C282.45 89.0002 282.814 88.3694 283.261 88.1136Z" fill="#567DE3"/>
<path d="M292.113 88.1866L292.1 87.9464L283.31 93.0445C282.986 93.23 282.735 93.0551 282.735 92.6801L282.686 89.3666C282.686 88.9948 282.948 88.5396 283.272 88.355L292.064 83.2577L292.051 83.0166L283.26 88.1131C282.813 88.3688 282.449 88.9997 282.449 89.5185L282.498 92.832C282.498 93.3501 282.873 93.5438 283.321 93.2872L292.113 88.1866Z" fill="#567DE3"/>
<path d="M272.725 84.3335V86.811L280.842 91.4981V89.0198L272.725 84.3335Z" fill="white"/>
<path d="M279.318 88.1401V90.6169L280.842 91.4977V89.0194L279.318 88.1401Z" fill="#314479"/>
<path d="M292.101 82.3989L278.338 74.4531L269.548 79.5512L283.311 87.4979L292.101 82.3989Z" fill="#1E3B86"/>
<path d="M290.978 81.7867L290.909 78.1382L272.14 80.4351L282.188 86.8848L290.978 81.7867Z" fill="#E8ECF6"/>
<path d="M269.136 79.59L282.899 87.5366C283.005 87.5971 283.15 87.5889 283.311 87.4974L269.547 79.5508C269.387 79.6431 269.242 79.6513 269.136 79.59Z" fill="#1E3B86"/>
<path d="M268.977 79.8679L282.739 87.8137C282.591 87.7287 282.499 87.5449 282.499 87.285L268.736 79.3384C268.736 79.599 268.828 79.7829 268.977 79.8679Z" fill="#1E3B86"/>
<path d="M292.051 77.4697L278.289 69.5239L269.499 74.6196L283.261 82.5654L292.051 77.4697Z" fill="#1E3B86"/>
<path d="M282.45 83.9715L268.687 76.0249L268.736 79.3384L282.499 87.2842L282.45 83.9715Z" fill="#1E3B86"/>
<path d="M283.261 82.5655L269.499 74.6196C269.051 74.8762 268.687 75.507 268.687 76.0251L282.45 83.9717C282.45 83.4529 282.814 82.822 283.261 82.5655Z" fill="#1E3B86"/>
<path d="M292.113 82.6392L292.1 82.3982L283.31 87.4971C282.986 87.6826 282.735 87.5069 282.735 87.1327L282.686 83.8192C282.686 83.4474 282.948 82.9923 283.272 82.8076L292.064 77.7103L292.051 77.4692L283.26 82.5649C282.813 82.8215 282.449 83.4523 282.449 83.9712L282.498 87.2847C282.498 87.8027 282.873 87.9956 283.321 87.7398L292.113 82.6392Z" fill="#1E3B86"/>
<path d="M272.725 78.7861V81.2637L280.842 85.9508V83.4724L272.725 78.7861Z" fill="white"/>
<path d="M279.318 82.5923V85.0698L280.842 85.9507V83.4723L279.318 82.5923Z" fill="#DFE8F9"/>
<path d="M229.742 93.9536L243.504 86.0078L252.295 91.1059L238.532 99.0525L229.742 93.9536Z" fill="#1E3B86"/>
<path d="M230.864 93.341L230.933 89.6934L249.702 91.9911L239.655 98.44L230.864 93.341Z" fill="#E8ECF6"/>
<path d="M252.706 91.146L238.944 99.0918C238.837 99.1523 238.692 99.1441 238.533 99.0526L252.295 91.106C252.455 91.1983 252.601 91.2064 252.706 91.146Z" fill="#1E3B86"/>
<path d="M252.865 91.4231L239.103 99.3689C239.252 99.2839 239.343 99.1009 239.343 98.8402L253.106 90.8936C253.106 91.1542 253.015 91.3373 252.865 91.4231Z" fill="#1E3B86"/>
<path d="M229.791 89.0241L243.553 81.0791L252.343 86.1747L238.581 94.1214L229.791 89.0241Z" fill="#1E3B86"/>
<path d="M239.393 95.5256L253.154 87.5806L253.106 90.8924L239.343 98.839L239.393 95.5256Z" fill="#1E3B86"/>
<path d="M238.581 94.1214L252.343 86.1748C252.791 86.4314 253.154 87.0622 253.154 87.5811L239.392 95.5269C239.393 95.0072 239.028 94.3772 238.581 94.1214Z" fill="#1E3B86"/>
<path d="M229.728 94.1939L229.742 93.9537L238.532 99.0518C238.856 99.2373 239.106 99.0624 239.106 98.6874L239.156 95.3739C239.156 95.0021 238.894 94.5469 238.57 94.3623L229.777 89.265L229.791 89.0239L238.581 94.1204C239.028 94.3762 239.393 95.007 239.393 95.5259L239.343 98.8393C239.343 99.3574 238.968 99.5511 238.52 99.2945L229.728 94.1939Z" fill="#1E3B86"/>
<path d="M249.118 90.3418V92.8193L241 97.5056V95.0281L249.118 90.3418Z" fill="white"/>
<path d="M242.524 94.1484V96.6252L241 97.5052V95.0277L242.524 94.1484Z" fill="#DFE8F9"/>
<mask id="mask0_437_2301" style="mask-type:luminance" maskUnits="userSpaceOnUse" x="214" y="103" width="65" height="88">
<path d="M214.42 103.616L278.157 139.799V190.763L214.42 189.384V103.616Z" fill="white"/>
</mask>
<g mask="url(#mask0_437_2301)">
<path d="M249.112 159.583C249.553 159.329 249.795 158.832 249.721 158.328L245.64 130.154C245.281 127.677 243.268 126.856 240.899 128.223L229.478 134.816C227.111 136.183 225.097 139.328 224.737 142.222L220.782 174.083C220.681 174.905 221.562 175.488 222.279 175.075C222.662 174.853 222.889 174.508 222.936 174.118L226.753 141.683C226.994 139.64 228.415 137.408 230.091 136.44L240.389 130.496C242.057 129.533 243.475 130.114 243.723 131.864L247.565 158.887C247.665 159.59 248.443 159.969 249.058 159.615L249.112 159.583Z" fill="white"/>
<path d="M271.218 140.918C272.616 140.111 248.969 128.086 247.846 127.16C247.42 126.809 246.38 126.33 245.791 126.684C244.024 127.748 224.241 138.631 221.914 140.469C219.586 142.308 221.466 144.414 222.673 144.806C223.88 145.197 244.731 160.726 246.875 156.51C250.015 150.339 266.135 143.854 271.218 140.918Z" fill="#FFFEEB"/>
<path d="M246.074 156.973C244.677 157.779 243.575 156.968 243.843 155.239C243.945 154.58 244.218 153.976 244.807 153.651C246.574 152.674 266.357 140.714 268.684 139.865C271.012 139.016 274.029 142.715 272.821 144.5C271.614 146.285 271.626 143.061 267.735 144.865C264.596 146.318 251.157 154.039 246.074 156.973Z" fill="#E6E4B7"/>
<path d="M274.126 173.608C274.348 173.48 274.471 173.228 274.433 172.974L270.292 144.388C269.933 141.911 267.92 141.089 265.552 142.457L254.131 149.051C251.763 150.418 249.749 153.562 249.391 156.457L245.391 188.67C245.307 189.346 246.034 189.828 246.624 189.487L247.242 189.13C247.414 189.031 247.528 188.856 247.551 188.66L251.406 155.918C251.647 153.875 253.068 151.643 254.744 150.675L265.041 144.731C266.71 143.766 268.127 144.348 268.377 146.099L272.254 173.381C272.336 173.96 272.978 174.273 273.485 173.98L274.126 173.608Z" fill="white"/>
</g>
<mask id="mask1_437_2301" style="mask-type:luminance" maskUnits="userSpaceOnUse" x="214" y="103" width="65" height="88">
<path d="M214.42 103.616L278.157 139.799V190.763L214.42 189.384V103.616Z" fill="white"/>
</mask>
<g mask="url(#mask1_437_2301)">
<path d="M231.728 123.881C231.728 123.881 228.155 128.479 227.733 131.665C227.312 134.852 229.517 138.659 233.724 141.164C237.933 143.669 240.753 146.872 248.811 143.417C256.87 139.962 262.77 135.35 262.77 135.35L270.013 139.658C270.013 139.658 272.6 127.287 267.891 123.88C263.181 120.473 256.822 118.67 255.844 118.67C254.866 118.67 232.259 123.207 231.728 123.881Z" fill="#211F26"/>
</g>
<path d="M255.618 103.852C255.618 103.852 260.895 103.615 261.776 103.107C262.657 102.599 264.437 98.2647 268.008 97.3274C271.578 96.3902 275.556 98.1209 275.853 102.352C276.15 106.585 273.67 110.426 272.122 111.259C270.573 112.091 264.424 108.507 263.651 108.72C262.877 108.933 261.096 109.425 261.096 109.52C261.096 109.615 255.618 103.852 255.618 103.852Z" fill="#FBD1C8"/>
<path d="M232.289 128.614C231.881 127.929 228.763 126.772 228.763 126.772C228.763 126.772 229.865 121.935 231.42 117.71C235.255 107.293 246.83 101.012 249.498 99.2578C252.165 97.5034 252.954 97.3105 254.871 99.4923C256.787 101.674 255.507 103.894 258.251 105.282C260.996 106.671 262.103 107.821 263.015 109.125C263.926 110.428 266.706 110.85 266.368 114.453C266.031 118.056 251.951 121.511 251.464 122.412C250.976 123.313 246.755 130.192 239.428 130.681C232.102 131.169 233.915 131.345 232.289 128.614Z" fill="#2B2730"/>
<path d="M248.346 100.483C248.346 100.483 252.755 94.5357 256.312 93.2831C259.869 92.0304 261.083 92.729 260.839 94.785C260.594 96.8401 256.796 102.442 256.554 103.586C256.312 104.729 249.649 103.003 249.524 102.626C249.398 102.251 248.346 100.483 248.346 100.483Z" fill="#2B2730"/>
<path d="M256.817 93.7987C256.817 93.7987 259.208 92.7674 260.157 92.9505C261.106 93.1343 273.557 101.07 273.995 101.61C274.432 102.151 272.567 104.014 271.346 103.635C270.124 103.254 257.701 98.0756 256.548 97.0084C255.396 95.9396 256.817 93.5862 256.817 93.5862L256.817 93.7987Z" fill="#2B2730"/>
<path d="M275.853 102.352C275.853 102.352 281.347 113.142 281.461 114.12C281.574 115.097 279.312 117.67 277.743 117.45C276.175 117.23 272.609 107.086 272.438 106.247C272.267 105.407 275.853 102.352 275.853 102.352Z" fill="#2B2730"/>
<path d="M275.335 99.4001C275.335 99.4001 274.965 94.7858 267.703 96.0262C263.047 96.8221 262.509 99.9411 261.447 100.096C260.383 100.252 260.297 100.096 260.297 100.096C260.297 100.096 260.552 101.621 261.715 101.426C262.88 101.231 263.592 101.238 262.874 101.443C262.156 101.648 261.813 102.375 261.63 103.991C261.447 105.607 260.801 105.519 260.801 105.519C260.801 105.519 261.733 106.8 263.844 106.479C265.956 106.157 266.208 106.002 266.208 106.002C266.208 106.002 263.793 107.896 263.998 109.407C264.203 110.918 269.667 113.655 269.665 113.464C269.664 113.272 273.105 112.541 274.136 111.148C275.166 109.754 275.596 108.429 275.596 108.429C275.596 108.429 275.756 108.659 275.271 109.913C274.785 111.167 274.388 111.293 274.388 111.293C274.388 111.293 275.401 112.095 277.389 108.881C279.377 105.668 278.95 102.486 277.481 100.721C276.012 98.9548 275.335 99.4001 275.335 99.4001Z" fill="#0E0D0D"/>
<path d="M262.435 110.543C263.269 109.953 264.728 109.649 266.505 110.209C268.284 110.768 271.317 112.134 273.496 112.378C275.674 112.621 278.911 111.29 280.826 113.219C282.739 115.147 280.723 116.48 279.376 117.881C278.029 119.283 261.694 119.676 260.144 119.659C258.594 119.643 258.465 113.347 262.435 110.543Z" fill="#2B2730"/>
<path d="M218.672 120.988C218.799 121.297 219.125 121.494 219.793 121.765C220.999 122.255 221.797 125.873 222.12 128.334C222.596 131.955 223.605 137.659 224.013 139.921C224.054 140.153 227.854 144.826 233.129 147.92C238.902 151.306 246.203 153.116 246.423 152.86L243.802 133.928C243.802 133.928 243.485 133.723 242.928 133.359L241.083 133.928L218.672 120.988Z" fill="#FFFEEB"/>
<path d="M218.672 120.988C218.672 120.988 221.983 125.326 227.013 128.904C232.933 133.114 241.083 133.927 241.083 133.927L244.9 132.751C244.9 132.751 236.364 130.195 230.045 126.467C225.304 123.67 222.488 119.812 222.488 119.812C221.517 118.595 218.845 118.85 218.672 119.94C218.594 120.423 218.571 120.742 218.672 120.988Z" fill="#FFFEEB"/>
<path d="M241.083 132.878C240.911 133.968 240.998 134.214 242.204 134.704C243.411 135.195 244.207 138.813 244.531 141.274C245.006 144.894 246.016 150.599 246.423 152.86C246.51 153.344 247.021 153.335 247.443 152.843L248.318 151.824C248.595 151.5 248.747 151.061 248.693 150.742C248.192 147.806 245.77 133.842 244.899 132.751C243.927 131.533 241.256 131.79 241.083 132.878Z" fill="#E6E4B7"/>
<path d="M303.626 123.914L305.732 115.89L286.069 114.171L283.963 122.194L303.626 123.914Z" fill="#ADB7D8"/>
<path d="M289.21 116.004L289.353 115.457L288.609 115.393L288.465 115.939L289.21 116.004Z" fill="#567DE3"/>
<path d="M290.55 116.121L290.694 115.574L289.95 115.509L289.806 116.055L290.55 116.121Z" fill="#567DE3"/>
<path d="M291.89 116.238L292.033 115.692L291.289 115.626L291.146 116.173L291.89 116.238Z" fill="#567DE3"/>
<path d="M293.231 116.355L293.374 115.809L292.63 115.743L292.486 116.29L293.231 116.355Z" fill="#567DE3"/>
<path d="M294.571 116.473L294.715 115.926L293.97 115.861L293.826 116.408L294.571 116.473Z" fill="#567DE3"/>
<path d="M295.912 116.591L296.055 116.044L295.31 115.979L295.167 116.525L295.912 116.591Z" fill="#567DE3"/>
<path d="M297.251 116.707L297.395 116.16L296.65 116.095L296.507 116.641L297.251 116.707Z" fill="#567DE3"/>
<path d="M298.592 116.825L298.736 116.278L297.99 116.213L297.847 116.76L298.592 116.825Z" fill="#567DE3"/>
<path d="M299.932 116.941L300.075 116.395L299.331 116.33L299.187 116.876L299.932 116.941Z" fill="#567DE3"/>
<path d="M301.272 117.058L301.415 116.512L300.671 116.447L300.528 116.994L301.272 117.058Z" fill="#567DE3"/>
<path d="M302.612 117.176L302.756 116.629L302.011 116.564L301.868 117.111L302.612 117.176Z" fill="#567DE3"/>
<path d="M303.952 117.293L304.096 116.747L303.351 116.682L303.208 117.229L303.952 117.293Z" fill="#567DE3"/>
<path d="M287.269 118.177L287.583 116.977L286.839 116.912L286.524 118.111L287.269 118.177Z" fill="#4D608E"/>
<path d="M288.609 118.294L288.924 117.095L288.18 117.029L287.865 118.228L288.609 118.294Z" fill="#567DE3"/>
<path d="M289.95 118.41L290.264 117.211L289.519 117.146L289.205 118.346L289.95 118.41Z" fill="#567DE3"/>
<path d="M291.289 118.528L291.604 117.33L290.86 117.264L290.545 118.464L291.289 118.528Z" fill="#567DE3"/>
<path d="M292.63 118.644L292.944 117.445L292.2 117.38L291.885 118.58L292.63 118.644Z" fill="#567DE3"/>
<path d="M293.97 118.762L294.285 117.563L293.54 117.498L293.225 118.698L293.97 118.762Z" fill="#567DE3"/>
<path d="M295.31 118.879L295.625 117.681L294.88 117.615L294.566 118.815L295.31 118.879Z" fill="#567DE3"/>
<path d="M296.65 118.997L296.966 117.797L296.22 117.733L295.906 118.932L296.65 118.997Z" fill="#567DE3"/>
<path d="M297.991 119.114L298.305 117.915L297.561 117.85L297.246 119.048L297.991 119.114Z" fill="#567DE3"/>
<path d="M299.331 119.231L299.646 118.032L298.902 117.966L298.586 119.166L299.331 119.231Z" fill="#567DE3"/>
<path d="M300.672 119.349L300.986 118.149L300.241 118.084L299.927 119.283L300.672 119.349Z" fill="#567DE3"/>
<path d="M302.011 119.466L302.326 118.267L301.582 118.201L301.266 119.401L302.011 119.466Z" fill="#567DE3"/>
<path d="M303.352 119.584L303.666 118.384L302.922 118.319L302.607 119.518L303.352 119.584Z" fill="#567DE3"/>
<path d="M301.414 124.252L307.139 116.841L288.975 112.165L283.251 119.576L301.414 124.252Z" fill="white"/>
<path d="M293.77 117.949L291.635 120.649L285.039 118.91L287.173 116.21L293.77 117.949Z" fill="#DFE8F9"/>
<defs>
<linearGradient id="paint0_linear_437_2301" x1="471.841" y1="1.73489" x2="95.3602" y2="70.9932" gradientUnits="userSpaceOnUse">
<stop stop-color="#6FB3F2" stop-opacity="0"/>
<stop offset="0.5" stop-color="#5577F1" stop-opacity="0.48"/>
<stop offset="1" stop-color="#739EF1" stop-opacity="0"/>
</linearGradient>
<linearGradient id="paint1_linear_437_2301" x1="81.6814" y1="278.012" x2="709.999" y2="277.346" gradientUnits="userSpaceOnUse">
<stop stop-color="#6FB3F2" stop-opacity="0"/>
<stop offset="0.5" stop-color="#5577F1" stop-opacity="0.56"/>
<stop offset="1" stop-color="#739EF1" stop-opacity="0"/>
</linearGradient>
<linearGradient id="paint2_linear_437_2301" x1="368.499" y1="214.074" x2="141.076" y2="110.552" gradientUnits="userSpaceOnUse">
<stop stop-color="#396CEE"/>
<stop offset="1" stop-color="#1241BB"/>
</linearGradient>
<linearGradient id="paint3_linear_437_2301" x1="350.302" y1="198.241" x2="167.273" y2="114.928" gradientUnits="userSpaceOnUse">
<stop stop-color="#396CEE"/>
<stop offset="1" stop-color="#1241BB"/>
</linearGradient>
<linearGradient id="paint4_linear_437_2301" x1="317.339" y1="179.566" x2="190.394" y2="121.838" gradientUnits="userSpaceOnUse">
<stop stop-color="#396CEE"/>
<stop offset="1" stop-color="#1241BB"/>
</linearGradient>
</defs>
</svg>
