<svg width="305" height="237" viewBox="0 0 305 237" fill="none" xmlns="http://www.w3.org/2000/svg">
<path d="M297.609 124.443C303.595 128.012 303.685 133.818 297.609 137.387L163.453 217.192C160.071 218.952 156.331 219.869 152.537 219.869C148.743 219.869 145.002 218.952 141.62 217.192L6.59603 137.387C0.610258 133.818 0.52049 128.012 6.52123 124.443L140.677 44.6377C144.06 42.878 147.8 41.9608 151.594 41.9608C155.388 41.9608 159.128 42.878 162.511 44.6377L297.609 124.443Z" fill="url(#paint0_linear_369_1004)"/>
<path d="M297.609 124.443C303.595 128.012 303.685 133.818 297.609 137.387L163.453 217.192C160.071 218.952 156.331 219.869 152.537 219.869C148.743 219.869 145.002 218.952 141.62 217.192L6.59603 137.387C0.610258 133.818 0.52049 128.012 6.52123 124.443L140.677 44.6377C144.06 42.878 147.8 41.9608 151.594 41.9608C155.388 41.9608 159.128 42.878 162.511 44.6377L297.609 124.443Z" fill="white" fill-opacity="0.2"/>
<path d="M298.926 123.662C305.705 127.66 305.735 134.17 299.016 138.183L164.86 217.988C158.126 221.986 147.127 221.986 140.363 217.988L5.32381 138.183C-1.45509 134.17 -1.485 127.66 5.249 123.662L139.405 43.7949C146.124 39.7817 157.123 39.7817 163.902 43.7949L298.926 123.662ZM163.513 217.192L297.669 137.386C303.655 133.817 303.655 128.012 297.669 124.443L162.645 44.6374C159.263 42.8777 155.522 41.9605 151.728 41.9605C147.934 41.9605 144.194 42.8777 140.812 44.6374L6.65566 124.443C0.669887 128.012 0.669869 133.817 6.73047 137.386L141.695 217.192C145.077 218.951 148.817 219.869 152.611 219.869C156.405 219.869 160.146 218.951 163.528 217.192H163.513Z" fill="#69339E"/>
<path d="M304.029 130.968V146.669C304.029 149.273 302.353 151.892 299.016 153.884V138.183C302.353 136.192 304.029 133.588 304.029 130.968Z" fill="#69339E"/>
<path d="M304.03 131.106V146.807C304.024 147.151 303.989 147.495 303.925 147.833V132.132C303.989 131.794 304.024 131.451 304.03 131.106Z" fill="#69339E"/>
<path d="M303.925 132.148V147.848C303.851 148.186 303.756 148.519 303.64 148.844V133.143C303.758 132.819 303.853 132.486 303.925 132.148Z" fill="#69339E"/>
<path d="M303.64 133.143V148.844C303.511 149.192 303.355 149.53 303.177 149.855V134.154C303.349 133.826 303.504 133.489 303.64 133.143Z" fill="#69339E"/>
<path d="M303.176 134.17V149.87C302.968 150.24 302.733 150.593 302.473 150.927V135.227C302.74 134.898 302.975 134.544 303.176 134.17Z" fill="#69339E"/>
<path d="M302.473 135.211V150.912C302.152 151.335 301.796 151.729 301.411 152.091V136.391C301.8 136.032 302.156 135.637 302.473 135.211Z" fill="#69339E"/>
<path d="M301.411 136.391V152.092C300.74 152.718 300.007 153.272 299.226 153.746V138.045C300.011 137.576 300.743 137.022 301.411 136.391Z" fill="#69339E"/>
<path d="M299.226 138.045V153.746L299.017 153.884V138.183L299.226 138.045Z" fill="#69339E"/>
<path d="M0.17627 146.562V130.861C0.17627 133.511 1.86726 136.161 5.27915 138.183V153.884C1.86726 151.862 0.17627 149.212 0.17627 146.562Z" fill="#69339E"/>
<path d="M5.32407 138.183V153.884C1.91218 151.862 0.221191 149.212 0.221191 146.562V130.861C0.221191 133.511 1.91218 136.161 5.32407 138.183Z" fill="#69339E"/>
<path d="M299.016 138.183L298.971 153.884L164.815 233.674L164.86 217.989L299.016 138.183Z" fill="#69339E"/>
<path d="M140.363 217.989L140.318 233.674L5.27905 153.884L5.32394 138.183L140.363 217.989Z" fill="#69339E"/>
<path d="M164.86 217.988V233.674C158.126 237.687 147.127 237.687 140.363 233.674V217.988C147.127 221.986 158.156 221.986 164.86 217.988Z" fill="#69339E"/>
<path d="M164.86 217.989V233.674C163.66 234.38 162.391 234.955 161.074 235.39V219.689C162.387 219.25 163.655 218.681 164.86 217.989Z" fill="#69339E"/>
<path d="M161.148 219.689V235.389C160.074 235.739 158.98 236.015 157.871 236.216V220.516C158.981 220.322 160.076 220.045 161.148 219.689Z" fill="#69339E"/>
<path d="M157.797 220.516V236.217C157.063 236.355 156.3 236.462 155.582 236.538V220.838C156.33 220.761 157.078 220.654 157.797 220.516Z" fill="#69339E"/>
<path d="M155.582 220.837V236.538C154.938 236.538 154.295 236.645 153.651 236.661V220.975L155.582 220.837Z" fill="#69339E"/>
<path d="M153.666 220.975V236.661C153.082 236.661 152.484 236.661 151.885 236.661V220.96L153.666 220.975Z" fill="#69339E"/>
<path d="M151.87 220.976V236.676L150.164 236.584V220.884L151.87 220.976Z" fill="#69339E"/>
<path d="M150.165 220.883V236.584C149.596 236.584 149.027 236.462 148.474 236.385V220.684C149.027 220.776 149.596 220.838 150.165 220.883Z" fill="#69339E"/>
<path d="M148.474 220.684V236.385C147.89 236.309 147.322 236.201 146.753 236.079V220.378C147.322 220.501 147.89 220.608 148.474 220.684Z" fill="#69339E"/>
<path d="M146.753 220.378V236.079C146.139 235.956 145.541 235.803 144.942 235.635V219.934C145.541 220.102 146.139 220.256 146.753 220.378Z" fill="#69339E"/>
<path d="M144.942 219.949V235.65C144.224 235.436 143.521 235.19 142.847 234.915V219.214C143.521 219.49 144.224 219.735 144.942 219.949Z" fill="#69339E"/>
<path d="M142.847 219.199V234.899C141.99 234.556 141.159 234.146 140.363 233.674V217.988C141.16 218.456 141.99 218.86 142.847 219.199Z" fill="#69339E"/>
<path d="M273.383 124.627V137.187C273.383 139.592 271.886 141.997 268.759 143.82V131.275C271.796 129.437 273.383 127.032 273.383 124.627Z" fill="#69339E"/>
<path d="M273.383 124.627V137.187V137.34V124.78C273.391 124.729 273.391 124.677 273.383 124.627Z" fill="#69339E"/>
<path d="M273.382 124.78V137.34C273.377 137.655 273.342 137.967 273.278 138.275V125.714C273.349 125.408 273.384 125.094 273.382 124.78Z" fill="#69339E"/>
<path d="M273.232 125.714V138.275C273.168 138.587 273.083 138.894 272.978 139.194V126.633C273.09 126.336 273.175 126.028 273.232 125.714Z" fill="#69339E"/>
<path d="M272.978 126.633V139.194C272.858 139.517 272.713 139.829 272.544 140.128V127.568C272.711 127.27 272.851 126.957 272.963 126.633H272.978Z" fill="#69339E"/>
<path d="M272.559 127.568V140.128C272.37 140.464 272.16 140.786 271.93 141.093V128.533C272.168 128.228 272.383 127.906 272.574 127.568H272.559Z" fill="#69339E"/>
<path d="M271.886 128.533V141.093C271.589 141.485 271.258 141.849 270.898 142.181V129.62C271.258 129.289 271.589 128.925 271.886 128.533Z" fill="#69339E"/>
<path d="M270.927 129.574V142.135C270.307 142.715 269.63 143.229 268.907 143.667V131.106C269.623 130.664 270.295 130.151 270.912 129.574H270.927Z" fill="#69339E"/>
<path d="M268.893 131.106V143.667L268.698 143.774V131.229C268.757 131.179 268.823 131.138 268.893 131.106Z" fill="#69339E"/>
<path d="M31.8258 137.096V124.535C31.8258 126.97 33.3223 129.421 36.5396 131.275V143.835C33.3821 141.982 31.8108 139.531 31.8258 137.096Z" fill="#69339E"/>
<path d="M36.5693 131.275V143.835C33.4268 141.982 31.8555 139.531 31.8705 137.096V124.535C31.8705 126.97 33.3669 129.421 36.5843 131.275H36.5693Z" fill="#69339E"/>
<path d="M268.728 131.275L268.684 143.82L164.217 205.979L164.247 193.419L268.728 131.275Z" fill="#69339E"/>
<path d="M141.71 193.419L141.68 205.979L36.5249 143.835L36.5698 131.275L141.71 193.419Z" fill="#69339E"/>
<path d="M164.246 193.419V205.979C160.754 207.792 156.894 208.737 152.978 208.737C149.063 208.737 145.202 207.792 141.71 205.979V193.419C145.202 195.232 149.063 196.176 152.978 196.176C156.894 196.176 160.754 195.232 164.246 193.419Z" fill="#69339E"/>
<path d="M164.246 193.419V205.979C163.139 206.612 161.97 207.125 160.76 207.511V194.951C161.971 194.567 163.14 194.054 164.246 193.419Z" fill="#69339E"/>
<path d="M160.759 194.981V207.542C159.781 207.869 158.78 208.125 157.766 208.308V195.747C158.781 195.565 159.781 195.309 160.759 194.981Z" fill="#69339E"/>
<path d="M157.752 195.747V208.308C157.093 208.43 156.405 208.537 155.717 208.599V196.038C156.39 196.038 157.078 195.87 157.752 195.747Z" fill="#69339E"/>
<path d="M155.717 196.038V208.599C155.133 208.599 154.55 208.706 153.951 208.721V196.161C154.55 196.161 155.133 196.161 155.732 196.038H155.717Z" fill="#69339E"/>
<path d="M153.936 196.161V208.721H152.305V196.161C152.844 196.161 153.397 196.161 153.936 196.161Z" fill="#69339E"/>
<path d="M152.305 196.176V208.737C151.781 208.737 151.242 208.737 150.734 208.645V196.084L152.23 196.176H152.305Z" fill="#69339E"/>
<path d="M150.674 196.084V208.645C150.15 208.645 149.626 208.537 149.177 208.461V195.9C149.686 195.977 150.21 196.038 150.674 196.084Z" fill="#69339E"/>
<path d="M149.177 195.9V208.461C148.639 208.384 148.115 208.292 147.591 208.185V195.624C148.115 195.732 148.654 195.824 149.177 195.9Z" fill="#69339E"/>
<path d="M147.591 195.625V208.185C147.022 208.063 146.468 207.925 145.93 207.772V195.211L147.591 195.625Z" fill="#69339E"/>
<path d="M145.93 195.211V207.771C145.272 207.572 144.628 207.358 144 207.097V194.537C144.628 194.797 145.272 195.012 145.93 195.211Z" fill="#69339E"/>
<path d="M144 194.537V207.098C143.212 206.781 142.446 206.407 141.71 205.979V193.419C142.443 193.853 143.209 194.226 144 194.537Z" fill="#69339E"/>
<path d="M268.654 117.902C274.879 121.594 274.924 127.583 268.728 131.275L164.247 193.419C160.754 195.231 156.894 196.176 152.978 196.176C149.063 196.176 145.202 195.231 141.71 193.419L36.5701 131.275C30.315 127.583 30.285 121.594 36.4803 117.902L140.962 55.7582C144.453 53.942 148.314 52.9954 152.23 52.9954C156.146 52.9954 160.007 53.942 163.498 55.7582L268.654 117.902Z" fill="url(#paint1_linear_369_1004)"/>
<path d="M268.654 117.902C274.879 121.594 274.924 127.583 268.728 131.275L164.247 193.419C160.754 195.231 156.894 196.176 152.978 196.176C149.063 196.176 145.202 195.231 141.71 193.419L36.5701 131.275C30.315 127.583 30.285 121.594 36.4803 117.902L140.962 55.7582C144.453 53.942 148.314 52.9954 152.23 52.9954C156.146 52.9954 160.007 53.942 163.498 55.7582L268.654 117.902Z" fill="white" fill-opacity="0.3"/>
<path d="M224.612 113.258C228.877 115.77 228.907 119.86 224.612 122.449L152.095 165.583C149.711 166.83 147.072 167.48 144.395 167.48C141.719 167.48 139.08 166.83 136.696 165.583L63.5949 122.387C59.33 119.875 59.3001 115.786 63.5949 113.197L136.217 70.0008C138.602 68.7579 141.24 68.1101 143.917 68.1101C146.593 68.1101 149.231 68.7579 151.616 70.0008L224.612 113.258Z" fill="url(#paint2_linear_369_1004)"/>
<path d="M62.2174 121.438C62.6093 121.083 63.0355 120.77 63.4894 120.503L136.112 77.3072C138.497 76.0644 141.135 75.4165 143.811 75.4165C146.487 75.4165 149.125 76.0644 151.51 77.3072L224.612 120.519C225.082 120.786 225.524 121.105 225.928 121.468C228.832 118.956 228.398 115.494 224.612 113.273L151.51 70.0619C149.125 68.8191 146.487 68.1712 143.811 68.1712C141.135 68.1712 138.497 68.8191 136.112 70.0619L63.4894 113.258C59.7483 115.418 59.3143 118.926 62.2174 121.438Z" fill="#25053E"/>
<path d="M136.073 6.41046L136.12 64.7444L209.154 107.495L209.107 49.1614L136.073 6.41046Z" fill="#8F43CA"/>
<path d="M133.595 6.99455L137.472 4.73742L137.37 64.1015L133.494 66.3568L133.595 6.99455Z" fill="#E6DEB7"/>
<path d="M133.494 66.3568L137.37 64.1015L210.535 106.261L206.656 108.518L133.494 66.3568Z" fill="#FFFEF6"/>
<path d="M209.105 47.8158L212.982 45.5568L212.871 110.305L208.996 112.56L209.105 47.8158Z" fill="#E6DEB7"/>
<path d="M131.258 2.95249L135.135 0.69536L212.982 45.5568L209.105 47.8158L131.258 2.95249Z" fill="#FFFEF6"/>
<path d="M131.258 2.95256L209.105 47.8159L208.996 112.56L131.145 67.6987L131.258 2.95256ZM206.655 108.518L206.756 49.1578L133.595 6.99448L133.494 66.3567L206.655 108.518Z" fill="#FFF9EB"/>
<g style="mix-blend-mode:overlay">
<path d="M167.533 60.8563L185.535 81.6599L192.814 96.4315L182.392 90.1413L167.537 65.7285L167.533 60.8563Z" fill="#686868"/>
</g>
<g style="mix-blend-mode:overlay">
<path d="M149.441 147.387C147.958 150.463 143.396 147.612 138.651 145.324C133.905 143.036 130.772 142.177 132.255 139.101C133.738 136.025 138.788 135.387 143.533 137.675C148.279 139.963 150.924 144.311 149.441 147.387Z" fill="#686868"/>
</g>
<g style="mix-blend-mode:overlay">
<path d="M93.1375 126.128L116.625 121.261L126.91 130.051L110.174 140.069L93.1375 130.051L93.1375 126.128Z" fill="#686868"/>
</g>
<path d="M128.531 123.689L128.525 125.248L109.378 136.375L109.383 134.816L128.531 123.689Z" fill="#390B67"/>
<path d="M109.383 134.816L109.378 136.375L90.1055 125.248L90.1109 123.689L109.383 134.816Z" fill="#25053E"/>
<path d="M128.53 123.689L109.383 134.816L90.1104 123.689L109.258 112.56L128.53 123.689Z" fill="#521E86"/>
<path d="M124.201 81.4721L124.077 124.636L109.308 133.218L109.429 90.0566L124.201 81.4721Z" fill="#A556E3"/>
<path d="M109.429 90.0566L109.307 133.218L94.4395 124.636L94.5627 81.4739L109.429 90.0566Z" fill="#8F43CA"/>
<path d="M124.201 81.4721L109.429 90.0566L94.563 81.4739L109.333 72.8895L124.201 81.4721Z" fill="#6B16C0"/>
<path d="M110 85.5014L90.5574 74.2023L110.932 70.0316L130.377 81.3325L110 85.5014Z" fill="#521E86"/>
<path d="M104.952 78.4403L97.7478 74.255L110.764 71.5912L117.97 75.7765L104.952 78.4403Z" fill="#FFFFF6"/>
<path d="M112.33 83.9056L105.123 79.7185L112.97 73.5368L120.176 77.7238L112.33 83.9056Z" fill="#FFFEEB"/>
<path d="M110.024 93.7413L90.5794 82.4404L90.5576 74.2023L110 85.5014L110.024 93.7413Z" fill="#25053E"/>
<path d="M110 85.5014L130.377 81.3325L130.379 81.9889L110.024 93.7413L110 85.5014Z" fill="#390B67"/>
<path d="M161.589 54.3112H161.662L160.318 52.7394C160.121 52.5073 159.769 52.4783 159.535 52.6778C159.303 52.8772 159.274 53.2271 159.475 53.461L161.46 55.7815C161.498 55.8251 161.544 55.8613 161.589 55.8903V54.3112Z" fill="#FFFBFA"/>
<path d="M134.037 100.73L135.66 101.684C135.581 102.763 135.501 103.846 135.533 104.928C135.561 105.815 135.662 106.7 135.613 107.585C135.566 108.47 136.237 108.772 135.7 109.478C134.67 108.669 134.226 107.654 133.744 106.506C133.377 105.635 132.931 104.76 132.917 103.815C132.899 102.707 133.477 101.688 134.037 100.73Z" fill="#FFD6BF"/>
<path d="M135.776 100.456C135.684 101.037 135.339 103.2 134.978 103.666C134.618 104.132 133.187 104.092 132.656 103.838C132.244 103.639 131.607 77.7857 132.398 75.1382C132.732 74.0393 133.243 72.9622 134.019 72.1045C134.4 71.682 134.781 71.3483 135.292 71.0962C135.898 70.8206 136.52 70.6103 137.171 70.4543C137.011 70.496 136.77 70.8369 136.688 70.9548C136.549 71.1289 136.476 71.2867 136.484 71.5061C136.471 71.8778 136.355 72.2604 136.378 72.6376C136.404 73.1054 136.542 73.6005 136.605 74.0611C136.627 78.366 136.58 82.6891 136.487 86.9903C136.456 88.1328 136.427 89.2752 136.384 90.4158C136.371 90.7875 136.357 91.172 136.279 91.5473C136.534 92.2146 136.531 92.9871 136.478 93.727C136.346 95.9756 136.161 98.2314 135.776 100.456Z" fill="#403F33"/>
<path d="M146.195 68.6499L146.19 68.9654L146.139 71.7562C146.139 71.7562 145.903 72.1316 145.476 72.5196C145.472 72.5178 145.468 72.5142 145.463 72.5142C145.392 72.5087 145.321 72.4997 145.251 72.4924C143.218 72.2748 140.692 71.8378 140.696 70.3472C140.696 70.3345 140.665 70.311 140.657 70.2983L140.764 68.1784L141.011 68.2002L144.667 68.5193L146.195 68.6499Z" fill="#FFD6BF"/>
<path d="M140.035 69.9756C139.727 70.2784 139.861 73.0837 139.899 73.5153C139.999 74.6667 140.191 73.0402 141.261 73.4808C142.329 73.9233 143.54 73.8943 144.674 73.664C145.314 73.5352 145.597 73.4645 146.046 72.993C146.496 72.5215 146.498 70.623 146.101 70.5885C145.704 70.554 144.773 70.6139 144.374 70.6357C143.428 70.6901 142.469 70.5269 141.589 70.1696C140.958 69.9139 140.717 69.3083 140.035 69.9756Z" fill="#F8F9FC"/>
<path d="M135.077 136.602C135.077 136.602 134.722 139.614 135.748 140.481C136.037 140.722 137.09 140.63 138.256 140.142C139.023 139.821 139.801 139.161 140.565 138.907C142.815 138.163 143.247 136.996 143.995 135.471C145.588 132.234 142.021 133.735 139.739 135.066C137.357 136.463 135.077 136.602 135.077 136.602Z" fill="#303027"/>
<path d="M143.183 114.595C142.986 116.309 142.63 118.013 142.355 119.716C142.19 120.697 142.248 121.441 142.072 122.42C141.731 124.38 141.816 133.525 141.816 136.653C141.816 137.288 134.989 139.32 134.802 138.388C134.613 137.489 134.167 129.958 134.497 127.242C134.749 125.176 135.272 105.565 135.139 104.27C134.929 102.175 135.119 98.6575 136.895 97.5496C139.573 95.8922 142.94 99.5769 143.669 101.189C144.73 103.497 144.05 106.854 143.183 114.595Z" fill="#211F26"/>
<path d="M143.486 140.713C143.486 140.713 142.382 143.514 143.151 144.642C143.368 144.956 144.406 145.165 145.653 145.023C146.473 144.931 147.389 144.514 148.188 144.486C150.548 144.407 151.258 143.402 152.365 142.145C154.716 139.476 150.899 139.915 148.366 140.553C145.719 141.222 143.486 140.713 143.486 140.713Z" fill="#303027"/>
<path d="M151.314 114.662C151.314 114.666 151.312 114.668 151.312 114.671C149.184 131.715 149.952 129.437 149.9 141.56C149.893 142.548 149.65 142.363 146.621 142.827C145.974 142.927 145.314 143.025 144.663 142.943C142.699 142.702 142.414 141.231 142.364 139.641C142.364 137.909 141.843 118.004 146.387 117.979C147.156 117.975 150.723 115.141 151.314 114.662Z" fill="#303027"/>
<path d="M151.779 103.149C151.592 107.489 151.571 111.65 151.315 114.664C151.315 114.666 151.311 114.668 151.311 114.673C150.992 118.448 150.501 118.583 149.521 120.819C148.834 122.387 148.925 123.542 148.04 124.318C147.358 124.917 146.315 124.902 145.547 124.44C144.778 123.977 143.755 127.682 143.468 126.794C143.244 126.074 143.109 122.784 143.073 122.019C142.72 114.524 139.514 109.581 140.208 103.447C140.242 103.124 151.779 103.149 151.779 103.149Z" fill="#303027"/>
<path d="M153.601 76.7195C153.601 76.7195 153.418 77.8872 153.173 79.5646C153.156 79.668 153.142 79.7713 153.129 79.8747C152.772 82.3554 152.304 85.7953 152.081 88.2869C152.007 89.1083 151.961 89.8282 151.952 90.374C151.916 93.0705 152.326 100.54 152.46 102.901C152.486 103.363 152.261 103.806 151.867 104.047C151.457 104.299 151.066 104.506 150.67 104.678C149.998 104.97 149.325 105.158 148.574 105.289C148.052 105.38 147.492 105.443 146.871 105.492C144.528 105.677 142.017 105.606 139.701 105.195C137.975 104.89 136.376 104.283 135.065 103.231C134.762 102.986 134.577 102.62 134.573 102.228V102.224C134.512 99.673 135.861 92.6244 135.866 89.8808C135.879 85.1752 134.176 77.2671 134.294 74.6432C134.397 72.4381 135.186 69.7652 139.975 70.3745L146.284 71.8125C147.589 72.5505 153.079 73.5316 153.601 76.7195Z" fill="#303027"/>
<path d="M137.16 85.3456C136.456 80.8938 133.361 73.3919 137.8 70.3401C134.931 70.6937 134.376 72.8262 134.291 74.645C134.175 77.2707 135.876 85.177 135.863 89.8826C135.858 92.6263 134.508 99.6748 134.57 102.226V102.23C134.574 102.622 134.759 102.988 135.062 103.233C135.426 103.525 135.816 103.78 136.222 104.007C136.195 103.833 136.171 103.657 136.153 103.479C135.399 97.4353 138.168 91.6434 137.16 85.3456Z" fill="#211F26"/>
<path d="M148.067 66.8003C147.701 67.6997 147.032 68.5139 146.19 68.9654C145.878 69.1304 145.546 69.2483 145.195 69.3027C145.129 69.3118 145.064 69.3209 144.999 69.3263C144.667 69.3535 144.322 69.3209 144.027 69.1685C143.445 68.8675 141.325 69.2447 141.111 68.6245C141.066 68.4903 141.031 68.3489 141.009 68.2002C140.774 66.5881 141.885 64.18 142.141 62.6676C142.38 61.2423 143.236 59.973 144.322 59.0137C145.236 58.205 146.323 57.5902 147.485 57.2221L148.071 57.9293L148.551 58.5096C148.317 59.8841 148.466 61.2913 148.538 62.6821C148.609 64.073 148.596 65.511 148.067 66.8003Z" fill="#FFD6BF"/>
<path d="M148.538 62.6804C148.465 61.2896 148.317 59.8824 148.551 58.5079L148.07 57.9276L147.887 58.8306C148.4 61.0067 148.407 63.2988 147.909 65.4802C147.718 66.3126 147.437 67.1594 146.855 67.785C146.271 68.4106 145.321 68.7588 144.534 68.4251C144.579 68.4541 144.625 68.485 144.663 68.5194C144.913 68.7171 145.083 68.9945 145.194 69.3046C145.283 69.5567 145.33 69.8287 145.343 70.0952C145.35 70.2639 145.346 70.4325 145.335 70.5994C145.573 70.554 145.82 70.5576 146.053 70.5975C146.09 70.603 146.124 70.612 146.159 70.6211L146.19 68.9673C147.031 68.5158 147.7 67.7016 148.066 66.8022C148.596 65.5111 148.609 64.0731 148.538 62.6804Z" fill="#FFD6BF"/>
<path d="M149.329 58.1724C149.215 59.0156 148.497 58.9575 148.05 59.6829C147.539 60.5207 147.512 61.2623 146.999 62.1001C146.812 62.4047 146.061 65.2753 145.2 64.7748C143.932 64.0386 145.379 67.4531 143.051 68.6772C142.648 68.8911 141.557 68.708 141.109 68.6228C140.848 68.572 140.65 68.3671 140.471 68.1712C140.458 68.1585 140.447 68.1458 140.434 68.1331C139.778 67.4241 137.368 65.1429 136.842 63.9842C136.387 62.9759 136.28 61.6939 136.3 60.566C136.318 59.5197 136.954 58.564 137.524 57.7245C138.102 56.8686 138.846 56.1577 139.758 55.6663C141.305 54.834 143.403 54.6762 145.198 54.9137C145.439 54.9446 145.675 54.9827 145.902 55.028C146.308 55.1096 146.71 55.2184 147.113 55.3435C147.283 55.4287 147.454 55.5194 147.628 55.6155C149.34 56.5621 149.314 57.5449 149.329 57.6138C149.329 57.6138 149.349 58.0273 149.329 58.1724Z" fill="#211F26"/>
<path opacity="0.2" d="M136.307 61.2442C136.337 62.1872 136.475 63.1736 136.842 63.9842C137.367 65.143 139.777 67.4242 140.434 68.1332C140.447 68.1459 140.459 68.1586 140.47 68.1713C140.65 68.3671 140.847 68.572 141.108 68.6228C141.556 68.708 142.65 68.8912 143.051 68.6772C145.377 67.4514 143.93 64.0386 145.199 64.7748C145.479 64.9362 145.747 64.744 145.988 64.3995C143.428 61.9369 139.785 60.4899 136.307 61.2442Z" fill="#211F26"/>
<path d="M145.099 66.4806C145.583 66.1041 145.564 65.2682 145.056 64.6134C144.547 63.9586 143.742 63.733 143.257 64.1094C142.773 64.4858 142.792 65.3218 143.3 65.9766C143.809 66.6314 144.614 66.857 145.099 66.4806Z" fill="#FFD6BF"/>
<path d="M144.597 65.8377C144.814 65.6695 144.805 65.2959 144.578 65.0033C144.351 64.7107 143.991 64.6099 143.774 64.7782C143.557 64.9464 143.566 65.32 143.793 65.6126C144.02 65.9052 144.38 66.006 144.597 65.8377Z" fill="#F5C2A6"/>
<path d="M145.706 71.1705C146.089 71.2539 146.466 71.3627 146.832 71.5114C147.075 71.6093 147.345 71.9902 147.349 72.2513C145.869 72.5686 143.149 71.9775 141.657 71.7236C140.375 71.506 139.125 70.6936 138.931 70.369C138.424 69.5204 141.537 70.4415 141.858 70.5304C143.111 70.8767 144.444 70.8949 145.706 71.1705Z" fill="#303027"/>
<path d="M163.818 56.1739H163.954L161.433 53.2272C161.061 52.7902 160.405 52.7394 159.966 53.113C159.531 53.4865 159.478 54.143 159.852 54.58L163.573 58.9303C163.644 59.0137 163.727 59.0808 163.816 59.1352V56.1739H163.818Z" fill="#403F33"/>
<path d="M162.267 59.9241C161.921 59.5959 161.905 59.0065 161.752 58.5768C161.359 57.4688 160.13 56.1922 160.313 55.7298C160.527 55.184 162.465 57.2476 162.514 56.7924C162.795 54.1812 161.618 53.4431 161.618 53.4395C161.618 53.2763 161.99 53.1965 162.197 53.153C163.366 52.9064 164.262 53.9418 164.841 54.6871C165.372 55.3689 165.298 57.0281 165.287 57.4253C165.269 58.069 164.955 58.6511 164.812 59.2713C164.696 59.7681 164.712 60.3085 164.665 60.8199C164.674 60.7347 162.559 60.1344 162.365 60.0039C162.331 59.9803 162.298 59.9531 162.267 59.9241Z" fill="#FFD6BF"/>
<path d="M165.565 58.4062C165.311 58.0562 161.566 59.4362 161.479 59.3945C161.363 59.3383 160.03 68.7061 160.074 70.2747C160.087 70.7951 149.616 72.6429 148.601 74.2296C147.816 75.4573 147.382 79.9072 151.247 80.9771C152.737 81.3906 165.505 73.7255 165.548 73.5986C167.556 72.3419 166.986 69.4732 166.992 69.0343C167.023 62.4536 165.726 58.6383 165.565 58.4062Z" fill="#403F33"/>
<defs>
<linearGradient id="paint0_linear_369_1004" x1="240.223" y1="172.924" x2="31.5346" y2="77.9299" gradientUnits="userSpaceOnUse">
<stop stop-color="#A939EE"/>
<stop offset="1" stop-color="#7112BB"/>
</linearGradient>
<linearGradient id="paint1_linear_369_1004" x1="223.524" y1="158.395" x2="55.5734" y2="81.9451" gradientUnits="userSpaceOnUse">
<stop stop-color="#A939EE"/>
<stop offset="1" stop-color="#7112BB"/>
</linearGradient>
<linearGradient id="paint2_linear_369_1004" x1="193.277" y1="141.259" x2="76.7904" y2="88.287" gradientUnits="userSpaceOnUse">
<stop stop-color="#A939EE"/>
<stop offset="1" stop-color="#7112BB"/>
</linearGradient>
</defs>
</svg>
