<svg width="305" height="205" viewBox="0 0 305 205" fill="none" xmlns="http://www.w3.org/2000/svg">
<path d="M298.017 92.3643C304.002 95.9331 304.092 101.738 298.017 105.307L163.87 185.107C160.488 186.866 156.748 187.783 152.954 187.783C149.161 187.783 145.421 186.866 142.039 185.107L7.02409 105.307C1.03874 101.738 0.948974 95.9331 6.94929 92.3643L141.096 12.5646C144.478 10.805 148.218 9.88794 152.012 9.88794C155.805 9.88794 159.546 10.805 162.928 12.5646L298.017 92.3643Z" fill="url(#paint0_linear_373_823)"/>
<path d="M298.017 92.3643C304.002 95.9331 304.092 101.738 298.017 105.307L163.87 185.107C160.488 186.866 156.748 187.783 152.954 187.783C149.161 187.783 145.421 186.866 142.039 185.107L7.02409 105.307C1.03874 101.738 0.948974 95.9331 6.94929 92.3643L141.096 12.5646C144.478 10.805 148.218 9.88794 152.012 9.88794C155.805 9.88794 159.546 10.805 162.928 12.5646L298.017 92.3643Z" fill="white" fill-opacity="0.2"/>
<path d="M299.333 91.5829C306.112 95.5805 306.142 102.09 299.423 106.103L165.277 185.903C158.543 189.9 147.545 189.9 140.781 185.903L5.75194 106.103C-1.02647 102.09 -1.05638 95.5805 5.67714 91.5829L139.824 11.7219C146.542 7.70892 157.54 7.70892 164.319 11.7219L299.333 91.5829ZM163.93 185.106L298.076 105.307C304.062 101.738 304.062 95.9328 298.076 92.364L163.062 12.5643C159.68 10.8048 155.94 9.88765 152.146 9.88765C148.352 9.88765 144.612 10.8048 141.23 12.5643L7.0837 92.364C1.09835 95.9328 1.09833 101.738 7.1585 105.307L142.113 185.106C145.495 186.866 149.235 187.783 153.029 187.783C156.823 187.783 160.563 186.866 163.945 185.106H163.93Z" fill="#33509E"/>
<path d="M304.436 98.889V114.589C304.436 117.192 302.76 119.812 299.423 121.803V106.103C302.76 104.112 304.436 101.508 304.436 98.889Z" fill="#33509E"/>
<path d="M304.436 99.0267V114.726C304.43 115.071 304.395 115.414 304.331 115.753V100.053C304.396 99.7147 304.431 99.3713 304.436 99.0267Z" fill="#33509E"/>
<path d="M304.331 100.068V115.768C304.257 116.106 304.162 116.438 304.047 116.763V101.064C304.164 100.739 304.259 100.407 304.331 100.068Z" fill="#33509E"/>
<path d="M304.047 101.064V116.763C303.917 117.112 303.762 117.45 303.583 117.774V102.075C303.756 101.747 303.911 101.409 304.047 101.064Z" fill="#33509E"/>
<path d="M303.583 102.09V117.79C303.375 118.159 303.14 118.512 302.88 118.846V103.147C303.146 102.818 303.382 102.464 303.583 102.09Z" fill="#33509E"/>
<path d="M302.88 103.132V118.831C302.558 119.254 302.203 119.648 301.817 120.011V104.311C302.206 103.953 302.562 103.558 302.88 103.132Z" fill="#33509E"/>
<path d="M301.818 104.311V120.011C301.146 120.637 300.414 121.191 299.633 121.665V105.965C300.418 105.497 301.15 104.942 301.818 104.311Z" fill="#33509E"/>
<path d="M299.633 105.965V121.665L299.423 121.803V106.103L299.633 105.965Z" fill="#33509E"/>
<path d="M0.60498 114.481V98.7819C0.60498 101.432 2.29585 104.081 5.7075 106.103V121.803C2.29585 119.781 0.60498 117.131 0.60498 114.481Z" fill="#33509E"/>
<path d="M5.75257 106.103V121.803C2.34092 119.781 0.650055 117.131 0.650055 114.482V98.7821C0.650055 101.432 2.34092 104.082 5.75257 106.103Z" fill="#33509E"/>
<path d="M299.423 106.103L299.378 121.803L165.232 201.587L165.277 185.903L299.423 106.103Z" fill="#33509E"/>
<path d="M140.782 185.903L140.737 201.587L5.70767 121.803L5.75256 106.103L140.782 185.903Z" fill="#33509E"/>
<path d="M165.277 185.903V201.587C158.543 205.6 147.545 205.6 140.782 201.587V185.903C147.545 189.9 158.573 189.9 165.277 185.903Z" fill="#33509E"/>
<path d="M165.277 185.903V201.587C164.078 202.293 162.809 202.868 161.492 203.303V187.603C162.805 187.164 164.073 186.595 165.277 185.903Z" fill="#33509E"/>
<path d="M161.566 187.603V203.302C160.493 203.652 159.398 203.928 158.289 204.13V188.43C159.4 188.236 160.495 187.959 161.566 187.603Z" fill="#33509E"/>
<path d="M158.215 188.43V204.13C157.481 204.268 156.718 204.375 156 204.451V188.752C156.748 188.675 157.496 188.568 158.215 188.43Z" fill="#33509E"/>
<path d="M156 188.752V204.451C155.357 204.451 154.713 204.558 154.07 204.574V188.89L156 188.752Z" fill="#33509E"/>
<path d="M154.085 188.89V204.574C153.501 204.574 152.903 204.574 152.304 204.574V188.874L154.085 188.89Z" fill="#33509E"/>
<path d="M152.289 188.89V204.589L150.583 204.497V188.798L152.289 188.89Z" fill="#33509E"/>
<path d="M150.583 188.798V204.497C150.014 204.497 149.446 204.375 148.892 204.298V188.599C149.446 188.69 150.014 188.752 150.583 188.798Z" fill="#33509E"/>
<path d="M148.893 188.599V204.298C148.309 204.222 147.741 204.114 147.172 203.992V188.292C147.741 188.415 148.309 188.522 148.893 188.599Z" fill="#33509E"/>
<path d="M147.172 188.292V203.992C146.558 203.869 145.96 203.716 145.361 203.548V187.848C145.96 188.017 146.558 188.17 147.172 188.292Z" fill="#33509E"/>
<path d="M145.361 187.863V203.563C144.643 203.349 143.94 203.103 143.266 202.828V187.128C143.94 187.404 144.643 187.649 145.361 187.863Z" fill="#33509E"/>
<path d="M143.266 187.113V202.812C142.409 202.469 141.578 202.059 140.782 201.587V185.903C141.579 186.37 142.409 186.775 143.266 187.113Z" fill="#33509E"/>
<path d="M273.791 92.548V105.108C273.791 107.512 272.295 109.917 269.168 111.74V99.1954C272.205 97.3574 273.791 94.9527 273.791 92.548Z" fill="#33509E"/>
<path d="M273.792 92.548V105.108V105.261V92.7012C273.8 92.6505 273.8 92.5988 273.792 92.548Z" fill="#33509E"/>
<path d="M273.791 92.7011V105.261C273.786 105.575 273.751 105.888 273.687 106.195V93.6355C273.758 93.3295 273.793 93.0158 273.791 92.7011Z" fill="#33509E"/>
<path d="M273.642 93.6355V106.195C273.578 106.507 273.493 106.814 273.388 107.114V94.5545C273.5 94.2568 273.585 93.9492 273.642 93.6355Z" fill="#33509E"/>
<path d="M273.388 94.5544V107.114C273.268 107.437 273.123 107.749 272.954 108.048V95.4888C273.121 95.1909 273.261 94.8782 273.373 94.5544H273.388Z" fill="#33509E"/>
<path d="M272.968 95.4889V108.049C272.78 108.384 272.57 108.706 272.34 109.014V96.4539C272.578 96.1495 272.793 95.8269 272.983 95.4889H272.968Z" fill="#33509E"/>
<path d="M272.295 96.4539V109.014C271.998 109.405 271.667 109.769 271.307 110.101V97.5414C271.667 97.2097 271.998 96.8458 272.295 96.4539Z" fill="#33509E"/>
<path d="M271.337 97.4953V110.055C270.717 110.635 270.04 111.149 269.317 111.587V99.027C270.033 98.5851 270.705 98.0721 271.323 97.4953H271.337Z" fill="#33509E"/>
<path d="M269.302 99.027V111.587L269.108 111.694V99.1495C269.167 99.0999 269.232 99.0587 269.302 99.027Z" fill="#33509E"/>
<path d="M32.2521 105.016V92.4561C32.2521 94.8915 33.7485 97.3421 36.9656 99.1954V111.755C33.8083 109.902 32.2372 107.451 32.2521 105.016Z" fill="#33509E"/>
<path d="M36.9955 99.1953V111.755C33.8532 109.902 32.282 107.451 32.297 105.016V92.4561C32.297 94.8914 33.7933 97.342 37.0104 99.1953H36.9955Z" fill="#33509E"/>
<path d="M269.138 99.1955L269.093 111.74L164.634 173.895L164.664 161.335L269.138 99.1955Z" fill="#33509E"/>
<path d="M142.129 161.335L142.099 173.895L36.9511 111.755L36.996 99.1955L142.129 161.335Z" fill="#33509E"/>
<path d="M164.663 161.335V173.895C161.171 175.707 157.311 176.652 153.396 176.652C149.481 176.652 145.62 175.707 142.128 173.895V161.335C145.62 163.148 149.481 164.092 153.396 164.092C157.311 164.092 161.171 163.148 164.663 161.335Z" fill="#33509E"/>
<path d="M164.663 161.335V173.895C163.556 174.527 162.387 175.04 161.177 175.426V162.867C162.388 162.484 163.557 161.97 164.663 161.335Z" fill="#33509E"/>
<path d="M161.177 162.897V175.457C160.198 175.784 159.198 176.04 158.184 176.223V163.663C159.198 163.481 160.198 163.226 161.177 162.897Z" fill="#33509E"/>
<path d="M158.169 163.663V176.223C157.511 176.345 156.822 176.453 156.134 176.514V163.954C156.807 163.954 157.496 163.786 158.169 163.663Z" fill="#33509E"/>
<path d="M156.134 163.954V176.514C155.551 176.514 154.967 176.621 154.369 176.636V164.077C154.967 164.077 155.551 164.077 156.149 163.954H156.134Z" fill="#33509E"/>
<path d="M154.354 164.077V176.636H152.723V164.077C153.262 164.077 153.815 164.077 154.354 164.077Z" fill="#33509E"/>
<path d="M152.723 164.092V176.652C152.199 176.652 151.66 176.652 151.152 176.56V164L152.648 164.092H152.723Z" fill="#33509E"/>
<path d="M151.091 164V176.56C150.568 176.56 150.044 176.453 149.595 176.376V163.816C150.104 163.893 150.628 163.954 151.091 164Z" fill="#33509E"/>
<path d="M149.595 163.816V176.376C149.057 176.299 148.533 176.207 148.009 176.1V163.541C148.533 163.648 149.072 163.74 149.595 163.816Z" fill="#33509E"/>
<path d="M148.009 163.541V176.1C147.44 175.978 146.887 175.84 146.348 175.687V163.127L148.009 163.541Z" fill="#33509E"/>
<path d="M146.348 163.127V175.687C145.69 175.488 145.046 175.273 144.418 175.013V162.453C145.046 162.714 145.69 162.928 146.348 163.127Z" fill="#33509E"/>
<path d="M144.418 162.453V175.013C143.63 174.696 142.865 174.322 142.128 173.895V161.335C142.862 161.769 143.627 162.143 144.418 162.453Z" fill="#33509E"/>
<path d="M269.063 85.824C275.287 89.5153 275.332 95.5041 269.138 99.1954L164.663 161.335C161.171 163.148 157.311 164.092 153.396 164.092C149.481 164.092 145.62 163.148 142.128 161.335L36.9958 99.1954C30.7411 95.5041 30.7112 89.5153 36.906 85.824L141.38 23.6843C144.871 21.8683 148.732 20.9217 152.648 20.9217C156.564 20.9217 160.424 21.8683 163.915 23.6843L269.063 85.824Z" fill="url(#paint1_linear_373_823)"/>
<path d="M269.063 85.824C275.287 89.5153 275.332 95.5041 269.138 99.1954L164.663 161.335C161.171 163.148 157.311 164.092 153.396 164.092C149.481 164.092 145.62 163.148 142.128 161.335L36.9958 99.1954C30.7411 95.5041 30.7112 89.5153 36.906 85.824L141.38 23.6843C144.871 21.8683 148.732 20.9217 152.648 20.9217C156.564 20.9217 160.424 21.8683 163.915 23.6843L269.063 85.824Z" fill="white" fill-opacity="0.3"/>
<path d="M232.801 49.9417L146.683 0.639771L84.8835 36.6784L170.987 86.2586L232.801 49.9417Z" fill="#7296F0"/>
<path d="M227.478 49.5113L148.925 4.27979L92.5369 37.1564L171.094 82.3892L227.478 49.5113Z" fill="#2C5EDD"/>
<path d="M148.925 7.30203L224.87 51.032L227.478 49.5113L148.925 4.27979L92.5369 37.1564L95.145 38.658L148.925 7.30203Z" fill="#05153E"/>
<path d="M209.445 27.9308L167.973 3.98383L102.471 42.0155L143.893 65.8553L209.445 27.9308Z" fill="#7296F0"/>
<path d="M232.842 50.8459L171.006 86.5492V134.553L232.842 98.8499V50.8459Z" fill="#05153E"/>
<path d="M171.006 85.6069V90.4688L232.842 54.7669V49.905L171.006 85.6069Z" fill="#33509E"/>
<path d="M87.4276 75.5627L84.5194 77.2408V80.4015L87.4276 78.7193V75.5627Z" fill="#E6E4B7"/>
<path d="M171.22 86.1093L85.3232 36.5169V84.9567L171.22 134.545V86.1093Z" fill="#0B2567"/>
<path d="M171.242 85.9844L85.0433 36.2181V40.6768L171.242 90.439V85.9844Z" fill="#33509E"/>
<path d="M149.32 62.7487L143.91 65.8769V125.002L149.32 121.876V62.7487Z" fill="#05153E"/>
<path d="M104.187 88.678L84.5262 77.249V83.8826L104.187 95.3144V88.678Z" fill="#FFFEEB"/>
<path d="M104.187 94.1835L84.5262 82.7571V84.385L104.187 95.8141V94.1835Z" fill="#E6E4B7"/>
<path d="M143.924 65.8648L102.537 41.9707V101.222L143.924 125.119V65.8648Z" fill="#0B2567"/>
<path d="M138.847 71.7009L108.689 54.2885V102.921L138.847 120.337V71.7009Z" fill="#FFFEEB"/>
<path d="M117.202 62.2519L110.547 58.4083V96.4604L117.202 100.304V62.2519Z" fill="#0B2567"/>
<path d="M117.048 62.7394L110.789 59.1252V94.9317L117.048 92.1117V62.7394Z" fill="#0B2567"/>
<path d="M126.691 67.7275L120.034 63.8865V81.7864L126.691 85.6286V67.7275Z" fill="#0B2567"/>
<path d="M126.691 91.3853L120.034 87.5444V104.068L126.691 107.911V91.3853Z" fill="#0B2567"/>
<path d="M164.129 91.3852L156.601 87.0433V121.337L164.129 125.683V91.3852Z" fill="#FFFEEB"/>
<path d="M136.288 73.2709L129.637 69.43V107.482L136.288 111.322V73.2709Z" fill="#0B2567"/>
<path d="M136.288 73.2709L129.637 69.43V86.3903L136.288 83.3653V73.2709Z" fill="#0B2567"/>
<path d="M136.184 98.3557H129.768V98.6517H136.184V98.3557Z" fill="#0B2567"/>
<path d="M136.215 109.037H132.991V109.333H136.215V109.037Z" fill="#0B2567"/>
<path d="M117.14 98.3557H113.915V98.6517H117.14V98.3557Z" fill="#0B2567"/>
<path d="M100.1 54.4234L92.5717 50.0761V84.3714L100.1 88.7146V54.4234Z" fill="#FFFEEB"/>
<path d="M171.409 127.492L149.307 114.829V121.462L171.409 134.125V127.492Z" fill="#FFFEEB"/>
<path d="M171.409 132.997L149.307 120.337V121.963L171.409 134.625V132.997Z" fill="#E6E4B7"/>
<path d="M102.537 44.7105L143.924 68.6073V65.5647L102.537 41.6679V44.7105Z" fill="#33509E"/>
<path d="M102.537 99.8205L143.924 123.719V118.206L102.537 94.3138V99.8205Z" fill="#FFFEEB"/>
<path d="M149.334 120.346L143.924 123.719V118.206L149.334 114.839V120.346Z" fill="#FFFEEB"/>
<path d="M102.537 101.222L143.924 125.119V123.719L102.537 99.8207V101.222Z" fill="#E6E4B7"/>
<path d="M149.324 121.885L143.924 125.119V123.719L149.324 120.322V121.885Z" fill="#E6E4B7"/>
<path d="M171.006 127.25V134.553L232.842 98.8498V91.5495L171.006 127.25Z" fill="#FFFEEB"/>
<path d="M232.968 97.0739L171.022 132.814V134.796L232.968 99.0561V97.0739Z" fill="#E6E4B7"/>
<path d="M191.394 83.8677L182.224 89.16V122.418L191.394 117.123V83.8677Z" fill="#FFFEEB"/>
<path d="M207.691 74.6055L198.522 79.8965V113.156L207.691 107.864V74.6055Z" fill="#FFFEEB"/>
<path d="M222.697 66.0439L213.527 71.3389V104.597L222.697 99.3033V66.0439Z" fill="#FFFEEB"/>
<path d="M209.224 28.8582L149.199 63.5513V73.6023L152.657 71.6662L155.323 73.2316L209.224 41.9477V28.8582Z" fill="#05153E"/>
<path d="M209.517 27.6837L143.924 65.5959V68.6073L209.517 30.7005V27.6837Z" fill="#33509E"/>
<path d="M204.377 27.8738L168.107 6.9314L108.331 41.0937L144.562 61.9451L204.377 27.8738Z" fill="#05153E"/>
<path d="M201.51 29.4405L168.492 10.3716L111.443 42.9573L144.431 61.9451L201.51 29.4405Z" fill="#2C5EDD"/>
<path d="M98.9409 55.0018L94.0342 52.1696V79.4158L98.9409 82.248V55.0018Z" fill="#0B2567"/>
<path d="M162.751 92.6167L157.842 89.7845L157.846 117.029L162.751 119.862V92.6167Z" fill="#0B2567"/>
<path d="M184.329 90.8693L189.234 88.0358V115.283L184.329 118.116V90.8693Z" fill="#05153E"/>
<path d="M184.521 91.445L188.236 89.3012V111.608L184.521 113.752V91.445Z" fill="#05153E"/>
<path d="M200.384 82.2059L205.291 79.3738V106.616L200.384 109.452V82.2059Z" fill="#05153E"/>
<path d="M200.576 82.7789L204.293 80.6351V102.947L200.576 105.088V82.7789Z" fill="#05153E"/>
<path d="M215.297 72.5337L220.202 69.7015V96.9437L215.291 99.7785L215.297 72.5337Z" fill="#05153E"/>
<path d="M215.489 73.1066L219.205 70.9629L219.198 93.2724L215.489 95.4163V73.1066Z" fill="#05153E"/>
<path d="M126.61 98.3557H120.063V98.6517H126.61V98.3557Z" fill="#0B2567"/>
<path d="M120.175 87.9272V90.5123L122.688 89.3786L120.175 87.9272Z" fill="#0B2567"/>
<g style="mix-blend-mode:overlay">
<path d="M83.1606 100.825L97.6152 85.8352L211.109 92.2593L230.326 112.194L164.712 152.133L83.1606 100.825Z" fill="#686868"/>
</g>
<defs>
<linearGradient id="paint0_linear_373_823" x1="240.634" y1="140.842" x2="31.9609" y2="45.8544" gradientUnits="userSpaceOnUse">
<stop stop-color="#396CEE"/>
<stop offset="1" stop-color="#1241BB"/>
</linearGradient>
<linearGradient id="paint1_linear_373_823" x1="223.937" y1="126.313" x2="55.9978" y2="49.8694" gradientUnits="userSpaceOnUse">
<stop stop-color="#396CEE"/>
<stop offset="1" stop-color="#1241BB"/>
</linearGradient>
</defs>
</svg>
